<svg width="1536px" height="672px" style="" class="" version="1.1" xmlns="http://www.w3.org/2000/svg"><g class="leaflet-zoom-hide"><g class="layer" transform="translate(-683,64)"><path class="node" d="M1570,578m0,22.346307368004766a22.346307368004766,22.346307368004766 0 1,1 0,-44.69261473600953a22.346307368004766,22.346307368004766 0 1,1 0,44.69261473600953z" style="fill: rgb(40, 64, 232); stroke: rgb(40, 64, 232); opacity: 0.8;"></path><path class="node" d="M1560,562m0,22.833171540815513a22.833171540815513,22.833171540815513 0 1,1 0,-45.66634308163103a22.833171540815513,22.833171540815513 0 1,1 0,45.66634308163103z" style="fill: rgb(40, 64, 232); stroke: rgb(40, 64, 232); opacity: 0.8;"></path><path class="node" d="M1545,520m0,21.48798542189573a21.48798542189573,21.48798542189573 0 1,1 0,-42.97597084379146a21.48798542189573,21.48798542189573 0 1,1 0,42.97597084379146z" style="fill: rgb(40, 64, 232); stroke: rgb(40, 64, 232); opacity: 0.8;"></path><path class="node" d="M1380,511m0,23.189117020702515a23.189117020702515,23.189117020702515 0 1,1 0,-46.37823404140503a23.189117020702515,23.189117020702515 0 1,1 0,46.37823404140503z" style="fill: rgb(40, 64, 232); stroke: rgb(40, 64, 232); opacity: 0.8;"></path><path class="node" d="M1600,510m0,19.762142616971435a19.762142616971435,19.762142616971435 0 1,1 0,-39.52428523394287a19.762142616971435,19.762142616971435 0 1,1 0,39.52428523394287z" style="fill: rgb(40, 64, 232); stroke: rgb(40, 64, 232); opacity: 0.8;"></path><path class="node" d="M1422,495m0,23.285349391769326a23.285349391769326,23.285349391769326 0 1,1 0,-46.57069878353865a23.285349391769326,23.285349391769326 0 1,1 0,46.57069878353865z" style="fill: rgb(40, 64, 232); stroke: rgb(40, 64, 232); opacity: 0.8;"></path><path class="node" d="M1569,495m0,18.963090175853438a18.963090175853438,18.963090175853438 0 1,1 0,-37.926180351706876a18.963090175853438,18.963090175853438 0 1,1 0,37.926180351706876z" style="fill: rgb(40, 64, 232); stroke: rgb(40, 64, 232); opacity: 0.8;"></path><path class="node" d="M1365,491m0,23.124763483189117a23.124763483189117,23.124763483189117 0 1,1 0,-46.249526966378234a23.124763483189117,23.124763483189117 0 1,1 0,46.249526966378234z" style="fill: rgb(40, 64, 232); stroke: rgb(40, 64, 232); opacity: 0.8;"></path><path class="node" d="M1339,471m0,20.569591685350204a20.569591685350204,20.569591685350204 0 1,1 0,-41.13918337070041a20.569591685350204,20.569591685350204 0 1,1 0,41.13918337070041z" style="fill: rgb(40, 64, 232); stroke: rgb(40, 64, 232); opacity: 0.8;"></path><path class="node" d="M1447,468m0,19.60610566622633a19.60610566622633,19.60610566622633 0 1,1 0,-39.21221133245266a19.60610566622633,19.60610566622633 0 1,1 0,39.21221133245266z" style="fill: rgb(40, 64, 232); stroke: rgb(40, 64, 232); opacity: 0.8;"></path><path class="node" d="M1478,465m0,21.190408022955854a21.190408022955854,21.190408022955854 0 1,1 0,-42.38081604591171a21.190408022955854,21.190408022955854 0 1,1 0,42.38081604591171z" style="fill: rgb(40, 64, 232); stroke: rgb(40, 64, 232); opacity: 0.8;"></path><path class="node" d="M1276,460m0,18.173395108652592a18.173395108652592,18.173395108652592 0 1,1 0,-36.346790217305184a18.173395108652592,18.173395108652592 0 1,1 0,36.346790217305184z" style="fill: rgb(40, 64, 232); stroke: rgb(40, 64, 232); opacity: 0.8;"></path><path class="node" d="M1509,456m0,18.878481172103054a18.878481172103054,18.878481172103054 0 1,1 0,-37.75696234420611a18.878481172103054,18.878481172103054 0 1,1 0,37.75696234420611z" style="fill: rgb(40, 64, 232); stroke: rgb(40, 64, 232); opacity: 0.8;"></path><path class="node" d="M1199,449m0,15.890163639809204a15.890163639809204,15.890163639809204 0 1,1 0,-31.780327279618408a15.890163639809204,15.890163639809204 0 1,1 0,31.780327279618408z" style="fill: rgb(40, 64, 232); stroke: rgb(40, 64, 232); opacity: 0.8;"></path><path class="node" d="M1238,437m0,18.716030044838263a18.716030044838263,18.716030044838263 0 1,1 0,-37.432060089676526a18.716030044838263,18.716030044838263 0 1,1 0,37.432060089676526z" style="fill: rgb(40, 64, 232); stroke: rgb(40, 64, 232); opacity: 0.8;"></path><path class="node" d="M1337,425m0,20.12209442542671a20.12209442542671,20.12209442542671 0 1,1 0,-40.24418885085342a20.12209442542671,20.12209442542671 0 1,1 0,40.24418885085342z" style="fill: rgb(40, 64, 232); stroke: rgb(40, 64, 232); opacity: 0.8;"></path><path class="node" d="M1172,423m0,16.635233144140354a16.635233144140354,16.635233144140354 0 1,1 0,-33.27046628828071a16.635233144140354,16.635233144140354 0 1,1 0,33.27046628828071z" style="fill: rgb(40, 64, 232); stroke: rgb(40, 64, 232); opacity: 0.8;"></path><path class="node" d="M1281,420m0,20.16578207697516a20.16578207697516,20.16578207697516 0 1,1 0,-40.33156415395032a20.16578207697516,20.16578207697516 0 1,1 0,40.33156415395032z" style="fill: rgb(40, 64, 232); stroke: rgb(40, 64, 232); opacity: 0.8;"></path><path class="node" d="M1361,420m0,21.5154817263163a21.5154817263163,21.5154817263163 0 1,1 0,-43.0309634526326a21.5154817263163,21.5154817263163 0 1,1 0,43.0309634526326z" style="fill: rgb(40, 64, 232); stroke: rgb(40, 64, 232); opacity: 0.8;"></path><path class="node" d="M1528,413m0,19.14655828609991a19.14655828609991,19.14655828609991 0 1,1 0,-38.29311657219982a19.14655828609991,19.14655828609991 0 1,1 0,38.29311657219982z" style="fill: rgb(40, 64, 232); stroke: rgb(40, 64, 232); opacity: 0.8;"></path><path class="node" d="M1477,403m0,19.381289779451674a19.381289779451674,19.381289779451674 0 1,1 0,-38.76257955890335a19.381289779451674,19.381289779451674 0 1,1 0,38.76257955890335z" style="fill: rgb(40, 64, 232); stroke: rgb(40, 64, 232); opacity: 0.8;"></path><path class="node" d="M1564,397m0,20.440561661965322a20.440561661965322,20.440561661965322 0 1,1 0,-40.881123323930645a20.440561661965322,20.440561661965322 0 1,1 0,40.881123323930645z" style="fill: rgb(40, 64, 232); stroke: rgb(40, 64, 232); opacity: 0.8;"></path><path class="node" d="M1427,395m0,17.236335855855163a17.236335855855163,17.236335855855163 0 1,1 0,-34.472671711710326a17.236335855855163,17.236335855855163 0 1,1 0,34.472671711710326z" style="fill: rgb(40, 64, 232); stroke: rgb(40, 64, 232); opacity: 0.8;"></path><path class="node" d="M1227,395m0,15.244216006555817a15.244216006555817,15.244216006555817 0 1,1 0,-30.488432013111634a15.244216006555817,15.244216006555817 0 1,1 0,30.488432013111634z" style="fill: rgb(40, 64, 232); stroke: rgb(40, 64, 232); opacity: 0.8;"></path><path class="node" d="M1190,393m0,13.776818619766445a13.776818619766445,13.776818619766445 0 1,1 0,-27.55363723953289a13.776818619766445,13.776818619766445 0 1,1 0,27.55363723953289z" style="fill: rgb(40, 64, 232); stroke: rgb(40, 64, 232); opacity: 0.8;"></path><path class="node" d="M1258,392m0,18.940047683294853a18.940047683294853,18.940047683294853 0 1,1 0,-37.88009536658971a18.940047683294853,18.940047683294853 0 1,1 0,37.88009536658971z" style="fill: rgb(40, 64, 232); stroke: rgb(40, 64, 232); opacity: 0.8;"></path><path class="node" d="M1151,383m0,18.731554442304077a18.731554442304077,18.731554442304077 0 1,1 0,-37.463108884608154a18.731554442304077,18.731554442304077 0 1,1 0,37.463108884608154z" style="fill: rgb(40, 64, 232); stroke: rgb(40, 64, 232); opacity: 0.8;"></path><path class="node" d="M1551,377m0,22.15960985565327a22.15960985565327,22.15960985565327 0 1,1 0,-44.31921971130654a22.15960985565327,22.15960985565327 0 1,1 0,44.31921971130654z" style="fill: rgb(40, 64, 232); stroke: rgb(40, 64, 232); opacity: 0.8;"></path><path class="node" d="M1339,374m0,19.478988814485547a19.478988814485547,19.478988814485547 0 1,1 0,-38.95797762897109a19.478988814485547,19.478988814485547 0 1,1 0,38.95797762897109z" style="fill: rgb(40, 64, 232); stroke: rgb(40, 64, 232); opacity: 0.8;"></path><path class="node" d="M1183,370m0,16.165290156012713a16.165290156012713,16.165290156012713 0 1,1 0,-32.330580312025425a16.165290156012713,16.165290156012713 0 1,1 0,32.330580312025425z" style="fill: rgb(40, 64, 232); stroke: rgb(40, 64, 232); opacity: 0.8;"></path><path class="node" d="M1607,370m0,19.613560654313325a19.613560654313325,19.613560654313325 0 1,1 0,-39.22712130862665a19.613560654313325,19.613560654313325 0 1,1 0,39.22712130862665z" style="fill: rgb(40, 64, 232); stroke: rgb(40, 64, 232); opacity: 0.8;"></path><path class="node" d="M1250,364m0,17.892700640849572a17.892700640849572,17.892700640849572 0 1,1 0,-35.785401281699144a17.892700640849572,17.892700640849572 0 1,1 0,35.785401281699144z" style="fill: rgb(40, 64, 232); stroke: rgb(40, 64, 232); opacity: 0.8;"></path><path class="node" d="M1293,360m0,19.358682612990638a19.358682612990638,19.358682612990638 0 1,1 0,-38.717365225981276a19.358682612990638,19.358682612990638 0 1,1 0,38.717365225981276z" style="fill: rgb(40, 64, 232); stroke: rgb(40, 64, 232); opacity: 0.8;"></path><path class="node" d="M1384,352m0,20.019830993165932a20.019830993165932,20.019830993165932 0 1,1 0,-40.039661986331865a20.019830993165932,20.019830993165932 0 1,1 0,40.039661986331865z" style="fill: rgb(40, 64, 232); stroke: rgb(40, 64, 232); opacity: 0.8;"></path><path class="node" d="M1222,351m0,18.205235386222782a18.205235386222782,18.205235386222782 0 1,1 0,-36.410470772445564a18.205235386222782,18.205235386222782 0 1,1 0,36.410470772445564z" style="fill: rgb(40, 64, 232); stroke: rgb(40, 64, 232); opacity: 0.8;"></path><path class="node" d="M1544,350m0,20.619577859686803a20.619577859686803,20.619577859686803 0 1,1 0,-41.239155719373606a20.619577859686803,20.619577859686803 0 1,1 0,41.239155719373606z" style="fill: rgb(40, 64, 232); stroke: rgb(40, 64, 232); opacity: 0.8;"></path><path class="node" d="M1148,344m0,17.916909350397834a17.916909350397834,17.916909350397834 0 1,1 0,-35.83381870079567a17.916909350397834,17.916909350397834 0 1,1 0,35.83381870079567z" style="fill: rgb(40, 64, 232); stroke: rgb(40, 64, 232); opacity: 0.8;"></path><path class="node" d="M1187,344m0,16.76376729099549a16.76376729099549,16.76376729099549 0 1,1 0,-33.52753458199098a16.76376729099549,16.76376729099549 0 1,1 0,33.52753458199098z" style="fill: rgb(40, 64, 232); stroke: rgb(40, 64, 232); opacity: 0.8;"></path><path class="node" d="M1474,341m0,18.66160612735134a18.66160612735134,18.66160612735134 0 1,1 0,-37.32321225470268a18.66160612735134,18.66160612735134 0 1,1 0,37.32321225470268z" style="fill: rgb(40, 64, 232); stroke: rgb(40, 64, 232); opacity: 0.8;"></path><path class="node" d="M1404,333m0,19.84344670739082a19.84344670739082,19.84344670739082 0 1,1 0,-39.68689341478164a19.84344670739082,19.84344670739082 0 1,1 0,39.68689341478164z" style="fill: rgb(40, 64, 232); stroke: rgb(40, 64, 232); opacity: 0.8;"></path><path class="node" d="M1255,331m0,18.684947562214028a18.684947562214028,18.684947562214028 0 1,1 0,-37.369895124428055a18.684947562214028,18.684947562214028 0 1,1 0,37.369895124428055z" style="fill: rgb(40, 64, 232); stroke: rgb(40, 64, 232); opacity: 0.8;"></path><path class="node" d="M1117,330m0,16.235644290845286a16.235644290845286,16.235644290845286 0 1,1 0,-32.47128858169057a16.235644290845286,16.235644290845286 0 1,1 0,32.47128858169057z" style="fill: rgb(40, 64, 232); stroke: rgb(40, 64, 232); opacity: 0.8;"></path><path class="node" d="M1041,327m0,16.695321326806898a16.695321326806898,16.695321326806898 0 1,1 0,-33.390642653613796a16.695321326806898,16.695321326806898 0 1,1 0,33.390642653613796z" style="fill: rgb(40, 64, 232); stroke: rgb(40, 64, 232); opacity: 0.8;"></path><path class="node" d="M1288,324m0,18.92467242959582a18.92467242959582,18.92467242959582 0 1,1 0,-37.84934485919164a18.92467242959582,18.92467242959582 0 1,1 0,37.84934485919164z" style="fill: rgb(40, 64, 232); stroke: rgb(40, 64, 232); opacity: 0.8;"></path><path class="node" d="M1599,322m0,20.569591685350204a20.569591685350204,20.569591685350204 0 1,1 0,-41.13918337070041a20.569591685350204,20.569591685350204 0 1,1 0,41.13918337070041z" style="fill: rgb(40, 64, 232); stroke: rgb(40, 64, 232); opacity: 0.8;"></path><path class="node" d="M1268,317m0,18.300467634216172a18.300467634216172,18.300467634216172 0 1,1 0,-36.600935268432345a18.300467634216172,18.300467634216172 0 1,1 0,36.600935268432345z" style="fill: rgb(40, 64, 232); stroke: rgb(40, 64, 232); opacity: 0.8;"></path><path class="node" d="M1331,315m0,17.385880884101685a17.385880884101685,17.385880884101685 0 1,1 0,-34.77176176820337a17.385880884101685,17.385880884101685 0 1,1 0,34.77176176820337z" style="fill: rgb(40, 64, 232); stroke: rgb(40, 64, 232); opacity: 0.8;"></path><path class="node" d="M1234,310m0,16.392997096003672a16.392997096003672,16.392997096003672 0 1,1 0,-32.785994192007344a16.392997096003672,16.392997096003672 0 1,1 0,32.785994192007344z" style="fill: rgb(40, 64, 232); stroke: rgb(40, 64, 232); opacity: 0.8;"></path><path class="node" d="M1202,308m0,17.00989930176378a17.00989930176378,17.00989930176378 0 1,1 0,-34.01979860352756a17.00989930176378,17.00989930176378 0 1,1 0,34.01979860352756z" style="fill: rgb(40, 64, 232); stroke: rgb(40, 64, 232); opacity: 0.8;"></path><path class="node" d="M1518,308m0,19.283158073289684a19.283158073289684,19.283158073289684 0 1,1 0,-38.56631614657937a19.283158073289684,19.283158073289684 0 1,1 0,38.56631614657937z" style="fill: rgb(40, 64, 232); stroke: rgb(40, 64, 232); opacity: 0.8;"></path><path class="node" d="M1400,306m0,18.284625495128306a18.284625495128306,18.284625495128306 0 1,1 0,-36.56925099025661a18.284625495128306,18.284625495128306 0 1,1 0,36.56925099025661z" style="fill: rgb(40, 64, 232); stroke: rgb(40, 64, 232); opacity: 0.8;"></path><path class="node" d="M1187,302m0,15.710489977553316a15.710489977553316,15.710489977553316 0 1,1 0,-31.42097995510663a15.710489977553316,15.710489977553316 0 1,1 0,31.42097995510663z" style="fill: rgb(40, 64, 232); stroke: rgb(40, 64, 232); opacity: 0.8;"></path><path class="node" d="M1367,299m0,17.706150028817994a17.706150028817994,17.706150028817994 0 1,1 0,-35.41230005763599a17.706150028817994,17.706150028817994 0 1,1 0,35.41230005763599z" style="fill: rgb(40, 64, 232); stroke: rgb(40, 64, 232); opacity: 0.8;"></path><path class="node" d="M1455,299m0,19.366220899624043a19.366220899624043,19.366220899624043 0 1,1 0,-38.732441799248086a19.366220899624043,19.366220899624043 0 1,1 0,38.732441799248086z" style="fill: rgb(40, 64, 232); stroke: rgb(40, 64, 232); opacity: 0.8;"></path><path class="node" d="M1074,295m0,15.104762958276273a15.104762958276273,15.104762958276273 0 1,1 0,-30.209525916552547a15.104762958276273,15.104762958276273 0 1,1 0,30.209525916552547z" style="fill: rgb(40, 64, 232); stroke: rgb(40, 64, 232); opacity: 0.8;"></path><path class="node" d="M1159,295m0,15.647190257388596a15.647190257388596,15.647190257388596 0 1,1 0,-31.294380514777192a15.647190257388596,15.647190257388596 0 1,1 0,31.294380514777192z" style="fill: rgb(40, 64, 232); stroke: rgb(40, 64, 232); opacity: 0.8;"></path><path class="node" d="M1048,288m0,13.35817120297338a13.35817120297338,13.35817120297338 0 1,1 0,-26.71634240594676a13.35817120297338,13.35817120297338 0 1,1 0,26.71634240594676z" style="fill: rgb(40, 64, 232); stroke: rgb(40, 64, 232); opacity: 0.8;"></path><path class="node" d="M1560,285m0,20.46929689215303a20.46929689215303,20.46929689215303 0 1,1 0,-40.93859378430606a20.46929689215303,20.46929689215303 0 1,1 0,40.93859378430606z" style="fill: rgb(40, 64, 232); stroke: rgb(40, 64, 232); opacity: 0.8;"></path><path class="node" d="M1025,279m0,16.5058422648999a16.5058422648999,16.5058422648999 0 1,1 0,-33.0116845297998a16.5058422648999,16.5058422648999 0 1,1 0,33.0116845297998z" style="fill: rgb(40, 64, 232); stroke: rgb(40, 64, 232); opacity: 0.8;"></path><path class="node" d="M1118,268m0,16.023792110596958a16.023792110596958,16.023792110596958 0 1,1 0,-32.047584221193915a16.023792110596958,16.023792110596958 0 1,1 0,32.047584221193915z" style="fill: rgb(40, 64, 232); stroke: rgb(40, 64, 232); opacity: 0.8;"></path><path class="node" d="M1469,265m0,17.236335855855163a17.236335855855163,17.236335855855163 0 1,1 0,-34.472671711710326a17.236335855855163,17.236335855855163 0 1,1 0,34.472671711710326z" style="fill: rgb(40, 64, 232); stroke: rgb(40, 64, 232); opacity: 0.8;"></path><path class="node" d="M1527,255m0,18.909286275322884a18.909286275322884,18.909286275322884 0 1,1 0,-37.81857255064577a18.909286275322884,18.909286275322884 0 1,1 0,37.81857255064577z" style="fill: rgb(40, 64, 232); stroke: rgb(40, 64, 232); opacity: 0.8;"></path><path class="node" d="M1375,255m0,15.629064639915134a15.629064639915134,15.629064639915134 0 1,1 0,-31.258129279830268a15.629064639915134,15.629064639915134 0 1,1 0,31.258129279830268z" style="fill: rgb(40, 64, 232); stroke: rgb(40, 64, 232); opacity: 0.8;"></path><path class="node" d="M1500,253m0,18.909286275322884a18.909286275322884,18.909286275322884 0 1,1 0,-37.81857255064577a18.909286275322884,18.909286275322884 0 1,1 0,37.81857255064577z" style="fill: rgb(40, 64, 232); stroke: rgb(40, 64, 232); opacity: 0.8;"></path><path class="node" d="M989,252m0,15.827475233663252a15.827475233663252,15.827475233663252 0 1,1 0,-31.654950467326504a15.827475233663252,15.827475233663252 0 1,1 0,31.654950467326504z" style="fill: rgb(40, 64, 232); stroke: rgb(40, 64, 232); opacity: 0.8;"></path><path class="node" d="M1579,249m0,19.561323491771702a19.561323491771702,19.561323491771702 0 1,1 0,-39.122646983543405a19.561323491771702,19.561323491771702 0 1,1 0,39.122646983543405z" style="fill: rgb(40, 64, 232); stroke: rgb(40, 64, 232); opacity: 0.8;"></path><path class="node" d="M1039,245m0,17.00146297874289a17.00146297874289,17.00146297874289 0 1,1 0,-34.00292595748578a17.00146297874289,17.00146297874289 0 1,1 0,34.00292595748578z" style="fill: rgb(40, 64, 232); stroke: rgb(40, 64, 232); opacity: 0.8;"></path><path class="node" d="M1080,244m0,16.712455352797683a16.712455352797683,16.712455352797683 0 1,1 0,-33.424910705595366a16.712455352797683,16.712455352797683 0 1,1 0,33.424910705595366z" style="fill: rgb(40, 64, 232); stroke: rgb(40, 64, 232); opacity: 0.8;"></path><path class="node" d="M1406,240m0,16.04153754876608a16.04153754876608,16.04153754876608 0 1,1 0,-32.08307509753216a16.04153754876608,16.04153754876608 0 1,1 0,32.08307509753216z" style="fill: rgb(40, 64, 232); stroke: rgb(40, 64, 232); opacity: 0.8;"></path><path class="node" d="M1462,232m0,17.591761006613503a17.591761006613503,17.591761006613503 0 1,1 0,-35.183522013227005a17.591761006613503,17.591761006613503 0 1,1 0,35.183522013227005z" style="fill: rgb(40, 64, 232); stroke: rgb(40, 64, 232); opacity: 0.8;"></path><path class="node" d="M1278,220m0,14.888797071289304a14.888797071289304,14.888797071289304 0 1,1 0,-29.777594142578607a14.888797071289304,14.888797071289304 0 1,1 0,29.777594142578607z" style="fill: rgb(40, 64, 232); stroke: rgb(40, 64, 232); opacity: 0.8;"></path><path class="node" d="M1540,218m0,19.931810099094825a19.931810099094825,19.931810099094825 0 1,1 0,-39.86362019818965a19.931810099094825,19.931810099094825 0 1,1 0,39.86362019818965z" style="fill: rgb(40, 64, 232); stroke: rgb(40, 64, 232); opacity: 0.8;"></path><path class="node" d="M1606,214m0,21.259940816179803a21.259940816179803,21.259940816179803 0 1,1 0,-42.519881632359606a21.259940816179803,21.259940816179803 0 1,1 0,42.519881632359606z" style="fill: rgb(40, 64, 232); stroke: rgb(40, 64, 232); opacity: 0.8;"></path><path class="node" d="M1412,213m0,18.878481172103054a18.878481172103054,18.878481172103054 0 1,1 0,-37.75696234420611a18.878481172103054,18.878481172103054 0 1,1 0,37.75696234420611z" style="fill: rgb(40, 64, 232); stroke: rgb(40, 64, 232); opacity: 0.8;"></path><path class="node" d="M1509,212m0,20.569591685350204a20.569591685350204,20.569591685350204 0 1,1 0,-41.13918337070041a20.569591685350204,20.569591685350204 0 1,1 0,41.13918337070041z" style="fill: rgb(40, 64, 232); stroke: rgb(40, 64, 232); opacity: 0.8;"></path><path class="node" d="M1374,198m0,19.84344670739082a19.84344670739082,19.84344670739082 0 1,1 0,-39.68689341478164a19.84344670739082,19.84344670739082 0 1,1 0,39.68689341478164z" style="fill: rgb(40, 64, 232); stroke: rgb(40, 64, 232); opacity: 0.8;"></path><path class="node" d="M1097,189m0,17.3444520827234a17.3444520827234,17.3444520827234 0 1,1 0,-34.6889041654468a17.3444520827234,17.3444520827234 0 1,1 0,34.6889041654468z" style="fill: rgb(40, 64, 232); stroke: rgb(40, 64, 232); opacity: 0.8;"></path><path class="node" d="M1473,185m0,21.836262558257715a21.836262558257715,21.836262558257715 0 1,1 0,-43.67252511651543a21.836262558257715,21.836262558257715 0 1,1 0,43.67252511651543z" style="fill: rgb(40, 64, 232); stroke: rgb(40, 64, 232); opacity: 0.8;"></path><path class="node" d="M1041,174m0,17.127632396079676a17.127632396079676,17.127632396079676 0 1,1 0,-34.25526479215935a17.127632396079676,17.127632396079676 0 1,1 0,34.25526479215935z" style="fill: rgb(40, 64, 232); stroke: rgb(40, 64, 232); opacity: 0.8;"></path><path class="node" d="M1374,169m0,19.769546012822687a19.769546012822687,19.769546012822687 0 1,1 0,-39.539092025645374a19.769546012822687,19.769546012822687 0 1,1 0,39.539092025645374z" style="fill: rgb(40, 64, 232); stroke: rgb(40, 64, 232); opacity: 0.8;"></path><path class="node" d="M1552,165m0,21.693454634324098a21.693454634324098,21.693454634324098 0 1,1 0,-43.386909268648196a21.693454634324098,21.693454634324098 0 1,1 0,43.386909268648196z" style="fill: rgb(40, 64, 232); stroke: rgb(40, 64, 232); opacity: 0.8;"></path><path class="node" d="M1402,161m0,21.370776844916126a21.370776844916126,21.370776844916126 0 1,1 0,-42.74155368983225a21.370776844916126,21.370776844916126 0 1,1 0,42.74155368983225z" style="fill: rgb(40, 64, 232); stroke: rgb(40, 64, 232); opacity: 0.8;"></path><path class="node" d="M1113,160m0,18.638239252210017a18.638239252210017,18.638239252210017 0 1,1 0,-37.276478504420034a18.638239252210017,18.638239252210017 0 1,1 0,37.276478504420034z" style="fill: rgb(40, 64, 232); stroke: rgb(40, 64, 232); opacity: 0.8;"></path><path class="node" d="M1355,158m0,19.441463101975344a19.441463101975344,19.441463101975344 0 1,1 0,-38.88292620395069a19.441463101975344,19.441463101975344 0 1,1 0,38.88292620395069z" style="fill: rgb(40, 64, 232); stroke: rgb(40, 64, 232); opacity: 0.8;"></path><path class="node" d="M1156,153m0,15.114093644224333a15.114093644224333,15.114093644224333 0 1,1 0,-30.228187288448666a15.114093644224333,15.114093644224333 0 1,1 0,30.228187288448666z" style="fill: rgb(40, 64, 232); stroke: rgb(40, 64, 232); opacity: 0.8;"></path><path class="node" d="M1511,146m0,21.856596108195987a21.856596108195987,21.856596108195987 0 1,1 0,-43.713192216391974a21.856596108195987,21.856596108195987 0 1,1 0,43.713192216391974z" style="fill: rgb(40, 64, 232); stroke: rgb(40, 64, 232); opacity: 0.8;"></path><path class="node" d="M1063,146m0,18.379500393961724a18.379500393961724,18.379500393961724 0 1,1 0,-36.75900078792345a18.379500393961724,18.379500393961724 0 1,1 0,36.75900078792345z" style="fill: rgb(40, 64, 232); stroke: rgb(40, 64, 232); opacity: 0.8;"></path><path class="node" d="M1427,145m0,21.43289912867142a21.43289912867142,21.43289912867142 0 1,1 0,-42.86579825734284a21.43289912867142,21.43289912867142 0 1,1 0,42.86579825734284z" style="fill: rgb(40, 64, 232); stroke: rgb(40, 64, 232); opacity: 0.8;"></path><path class="node" d="M1186,140m0,16.479859763484143a16.479859763484143,16.479859763484143 0 1,1 0,-32.959719526968286a16.479859763484143,16.479859763484143 0 1,1 0,32.959719526968286z" style="fill: rgb(40, 64, 232); stroke: rgb(40, 64, 232); opacity: 0.8;"></path><path class="node" d="M1134,131m0,17.5753672361903a17.5753672361903,17.5753672361903 0 1,1 0,-35.1507344723806a17.5753672361903,17.5753672361903 0 1,1 0,35.1507344723806z" style="fill: rgb(40, 64, 232); stroke: rgb(40, 64, 232); opacity: 0.8;"></path><path class="node" d="M1360,129m0,18.940047683294853a18.940047683294853,18.940047683294853 0 1,1 0,-37.88009536658971a18.940047683294853,18.940047683294853 0 1,1 0,37.88009536658971z" style="fill: rgb(40, 64, 232); stroke: rgb(40, 64, 232); opacity: 0.8;"></path><path class="node" d="M1589,129m0,24.658004895398253a24.658004895398253,24.658004895398253 0 1,1 0,-49.31600979079651a24.658004895398253,24.658004895398253 0 1,1 0,49.31600979079651z" style="fill: rgb(40, 64, 232); stroke: rgb(40, 64, 232); opacity: 0.8;"></path><path class="node" d="M1528,127m0,20.569591685350204a20.569591685350204,20.569591685350204 0 1,1 0,-41.13918337070041a20.569591685350204,20.569591685350204 0 1,1 0,41.13918337070041z" style="fill: rgb(40, 64, 232); stroke: rgb(40, 64, 232); opacity: 0.8;"></path><path class="node" d="M1471,119m0,21.391502014477716a21.391502014477716,21.391502014477716 0 1,1 0,-42.78300402895543a21.391502014477716,21.391502014477716 0 1,1 0,42.78300402895543z" style="fill: rgb(40, 64, 232); stroke: rgb(40, 64, 232); opacity: 0.8;"></path><path class="node" d="M1212,117m0,19.70282767714043a19.70282767714043,19.70282767714043 0 1,1 0,-39.40565535428086a19.70282767714043,19.70282767714043 0 1,1 0,39.40565535428086z" style="fill: rgb(40, 64, 232); stroke: rgb(40, 64, 232); opacity: 0.8;"></path><path class="node" d="M1121,114m0,18.978438279155977a18.978438279155977,18.978438279155977 0 1,1 0,-37.956876558311954a18.978438279155977,18.978438279155977 0 1,1 0,37.956876558311954z" style="fill: rgb(40, 64, 232); stroke: rgb(40, 64, 232); opacity: 0.8;"></path><path class="node" d="M1510,112m0,22.85922512536061a22.85922512536061,22.85922512536061 0 1,1 0,-45.71845025072122a22.85922512536061,22.85922512536061 0 1,1 0,45.71845025072122z" style="fill: rgb(40, 64, 232); stroke: rgb(40, 64, 232); opacity: 0.8;"></path><path class="node" d="M1252,109m0,20.33970707426809a20.33970707426809,20.33970707426809 0 1,1 0,-40.67941414853618a20.33970707426809,20.33970707426809 0 1,1 0,40.67941414853618z" style="fill: rgb(40, 64, 232); stroke: rgb(40, 64, 232); opacity: 0.8;"></path><path class="node" d="M1564,105m0,22.43251837403789a22.43251837403789,22.43251837403789 0 1,1 0,-44.86503674807578a22.43251837403789,22.43251837403789 0 1,1 0,44.86503674807578z" style="fill: rgb(40, 64, 232); stroke: rgb(40, 64, 232); opacity: 0.8;"></path><path class="node" d="M1405,103m0,20.72633312113871a20.72633312113871,20.72633312113871 0 1,1 0,-41.45266624227742a20.72633312113871,20.72633312113871 0 1,1 0,41.45266624227742z" style="fill: rgb(40, 64, 232); stroke: rgb(40, 64, 232); opacity: 0.8;"></path><path class="node" d="M1183,100m0,18.69272240144987a18.69272240144987,18.69272240144987 0 1,1 0,-37.38544480289974a18.69272240144987,18.69272240144987 0 1,1 0,37.38544480289974z" style="fill: rgb(40, 64, 232); stroke: rgb(40, 64, 232); opacity: 0.8;"></path><path class="node" d="M1324,100m0,22.65661179279333a22.65661179279333,22.65661179279333 0 1,1 0,-45.31322358558666a22.65661179279333,22.65661179279333 0 1,1 0,45.31322358558666z" style="fill: rgb(40, 64, 232); stroke: rgb(40, 64, 232); opacity: 0.8;"></path><path class="node" d="M1608,91m0,23.098977255863677a23.098977255863677,23.098977255863677 0 1,1 0,-46.19795451172735a23.098977255863677,23.098977255863677 0 1,1 0,46.19795451172735z" style="fill: rgb(40, 64, 232); stroke: rgb(40, 64, 232); opacity: 0.8;"></path><path class="node" d="M1157,86m0,18.379500393961724a18.379500393961724,18.379500393961724 0 1,1 0,-36.75900078792345a18.379500393961724,18.379500393961724 0 1,1 0,36.75900078792345z" style="fill: rgb(40, 64, 232); stroke: rgb(40, 64, 232); opacity: 0.8;"></path><path class="node" d="M1546,84m0,24.37673314406694a24.37673314406694,24.37673314406694 0 1,1 0,-48.75346628813388a24.37673314406694,24.37673314406694 0 1,1 0,48.75346628813388z" style="fill: rgb(40, 64, 232); stroke: rgb(40, 64, 232); opacity: 0.8;"></path><path class="node" d="M1415,73m0,23.698314756619226a23.698314756619226,23.698314756619226 0 1,1 0,-47.39662951323845a23.698314756619226,23.698314756619226 0 1,1 0,47.39662951323845z" style="fill: rgb(40, 64, 232); stroke: rgb(40, 64, 232); opacity: 0.8;"></path><path class="node" d="M1134,73m0,18.66160612735134a18.66160612735134,18.66160612735134 0 1,1 0,-37.32321225470268a18.66160612735134,18.66160612735134 0 1,1 0,37.32321225470268z" style="fill: rgb(40, 64, 232); stroke: rgb(40, 64, 232); opacity: 0.8;"></path><path class="node" d="M1194,68m0,18.762569670940394a18.762569670940394,18.762569670940394 0 1,1 0,-37.52513934188079a18.762569670940394,18.762569670940394 0 1,1 0,37.52513934188079z" style="fill: rgb(40, 64, 232); stroke: rgb(40, 64, 232); opacity: 0.8;"></path><path class="node" d="M1343,55m0,21.239102115894685a21.239102115894685,21.239102115894685 0 1,1 0,-42.47820423178937a21.239102115894685,21.239102115894685 0 1,1 0,42.47820423178937z" style="fill: rgb(40, 64, 232); stroke: rgb(40, 64, 232); opacity: 0.8;"></path><path class="node" d="M1600,50m0,26a26,26 0 1,1 0,-52a26,26 0 1,1 0,52z" style="fill: rgb(40, 64, 232); stroke: rgb(40, 64, 232); opacity: 0.8;"></path><path class="node" d="M1385,49m0,23.597261677190307a23.597261677190307,23.597261677190307 0 1,1 0,-47.194523354380614a23.597261677190307,23.597261677190307 0 1,1 0,47.194523354380614z" style="fill: rgb(40, 64, 232); stroke: rgb(40, 64, 232); opacity: 0.8;"></path><path class="node" d="M1282,46m0,20.01250890322678a20.01250890322678,20.01250890322678 0 1,1 0,-40.02501780645356a20.01250890322678,20.01250890322678 0 1,1 0,40.02501780645356z" style="fill: rgb(40, 64, 232); stroke: rgb(40, 64, 232); opacity: 0.8;"></path><path class="node" d="M1261,45m0,20.31081055982506a20.31081055982506,20.31081055982506 0 1,1 0,-40.62162111965012a20.31081055982506,20.31081055982506 0 1,1 0,40.62162111965012z" style="fill: rgb(40, 64, 232); stroke: rgb(40, 64, 232); opacity: 0.8;"></path><path class="node" d="M1485,44m0,22.4589855874358a22.4589855874358,22.4589855874358 0 1,1 0,-44.9179711748716a22.4589855874358,22.4589855874358 0 1,1 0,44.9179711748716z" style="fill: rgb(40, 64, 232); stroke: rgb(40, 64, 232); opacity: 0.8;"></path><path class="node" d="M1244,42m0,21.937763021875814a21.937763021875814,21.937763021875814 0 1,1 0,-43.87552604375163a21.937763021875814,21.937763021875814 0 1,1 0,43.87552604375163z" style="fill: rgb(40, 64, 232); stroke: rgb(40, 64, 232); opacity: 0.8;"></path><path class="node" d="M1438,39m0,23.35569457999771a23.35569457999771,23.35569457999771 0 1,1 0,-46.71138915999542a23.35569457999771,23.35569457999771 0 1,1 0,46.71138915999542z" style="fill: rgb(40, 64, 232); stroke: rgb(40, 64, 232); opacity: 0.8;"></path><path class="node" d="M1528,33m0,22.106010427104263a22.106010427104263,22.106010427104263 0 1,1 0,-44.212020854208525a22.106010427104263,22.106010427104263 0 1,1 0,44.212020854208525z" style="fill: rgb(40, 64, 232); stroke: rgb(40, 64, 232); opacity: 0.8;"></path><path class="node" d="M1373,6m0,24.024106031581205a24.024106031581205,24.024106031581205 0 1,1 0,-48.04821206316241a24.024106031581205,24.024106031581205 0 1,1 0,48.04821206316241z" style="fill: rgb(40, 64, 232); stroke: rgb(40, 64, 232); opacity: 0.8;"></path><path class="node" d="M1216,4m0,20.72633312113871a20.72633312113871,20.72633312113871 0 1,1 0,-41.45266624227742a20.72633312113871,20.72633312113871 0 1,1 0,41.45266624227742z" style="fill: rgb(40, 64, 232); stroke: rgb(40, 64, 232); opacity: 0.8;"></path><path class="node" d="M1323,2m0,22.68284605168817a22.68284605168817,22.68284605168817 0 1,1 0,-45.36569210337634a22.68284605168817,22.68284605168817 0 1,1 0,45.36569210337634z" style="fill: rgb(40, 64, 232); stroke: rgb(40, 64, 232); opacity: 0.8;"></path><path class="node" d="M1606,0m0,23.41310920070379a23.41310920070379,23.41310920070379 0 1,1 0,-46.82621840140758a23.41310920070379,23.41310920070379 0 1,1 0,46.82621840140758z" style="fill: rgb(40, 64, 232); stroke: rgb(40, 64, 232); opacity: 0.8;"></path><path class="node" d="M1539,-9m0,22.976140089669585a22.976140089669585,22.976140089669585 0 1,1 0,-45.95228017933917a22.976140089669585,22.976140089669585 0 1,1 0,45.95228017933917z" style="fill: rgb(40, 64, 232); stroke: rgb(40, 64, 232); opacity: 0.8;"></path><path class="node" d="M1268,-18m0,21.197370377051094a21.197370377051094,21.197370377051094 0 1,1 0,-42.39474075410219a21.197370377051094,21.197370377051094 0 1,1 0,42.39474075410219z" style="fill: rgb(40, 64, 232); stroke: rgb(40, 64, 232); opacity: 0.8;"></path><path class="node" d="M1292,-19m0,21.58408671230507a21.58408671230507,21.58408671230507 0 1,1 0,-43.16817342461014a21.58408671230507,21.58408671230507 0 1,1 0,43.16817342461014z" style="fill: rgb(40, 64, 232); stroke: rgb(40, 64, 232); opacity: 0.8;"></path></g></g><g class="leaflet-zoom-hide"><g class="layer" transform="translate(-683,64)"><path class="node" d="M1570,578m0,20.825535732623862a20.825535732623862,20.825535732623862 0 1,1 0,-41.651071465247725a20.825535732623862,20.825535732623862 0 1,1 0,41.651071465247725z" style="fill: rgb(18, 162, 90); stroke: rgb(18, 162, 90); opacity: 0.8;"></path><path class="node" d="M1560,562m0,20.648093498915614a20.648093498915614,20.648093498915614 0 1,1 0,-41.29618699783123a20.648093498915614,20.648093498915614 0 1,1 0,41.29618699783123z" style="fill: rgb(18, 162, 90); stroke: rgb(18, 162, 90); opacity: 0.8;"></path><path class="node" d="M1545,520m0,20.903189103150627a20.903189103150627,20.903189103150627 0 1,1 0,-41.806378206301254a20.903189103150627,20.903189103150627 0 1,1 0,41.806378206301254z" style="fill: rgb(18, 162, 90); stroke: rgb(18, 162, 90); opacity: 0.8;"></path><path class="node" d="M1380,511m0,22.359589844646283a22.359589844646283,22.359589844646283 0 1,1 0,-44.71917968929257a22.359589844646283,22.359589844646283 0 1,1 0,44.71917968929257z" style="fill: rgb(18, 162, 90); stroke: rgb(18, 162, 90); opacity: 0.8;"></path><path class="node" d="M1600,510m0,18.60704370076763a18.60704370076763,18.60704370076763 0 1,1 0,-37.21408740153526a18.60704370076763,18.60704370076763 0 1,1 0,37.21408740153526z" style="fill: rgb(18, 162, 90); stroke: rgb(18, 162, 90); opacity: 0.8;"></path><path class="node" d="M1422,495m0,21.747955704236702a21.747955704236702,21.747955704236702 0 1,1 0,-43.495911408473404a21.747955704236702,21.747955704236702 0 1,1 0,43.495911408473404z" style="fill: rgb(18, 162, 90); stroke: rgb(18, 162, 90); opacity: 0.8;"></path><path class="node" d="M1569,495m0,17.86846354505801a17.86846354505801,17.86846354505801 0 1,1 0,-35.73692709011602a17.86846354505801,17.86846354505801 0 1,1 0,35.73692709011602z" style="fill: rgb(18, 162, 90); stroke: rgb(18, 162, 90); opacity: 0.8;"></path><path class="node" d="M1365,491m0,22.30641773795712a22.30641773795712,22.30641773795712 0 1,1 0,-44.61283547591424a22.30641773795712,22.30641773795712 0 1,1 0,44.61283547591424z" style="fill: rgb(18, 162, 90); stroke: rgb(18, 162, 90); opacity: 0.8;"></path><path class="node" d="M1339,471m0,19.2982836516986a19.2982836516986,19.2982836516986 0 1,1 0,-38.5965673033972a19.2982836516986,19.2982836516986 0 1,1 0,38.5965673033972z" style="fill: rgb(18, 162, 90); stroke: rgb(18, 162, 90); opacity: 0.8;"></path><path class="node" d="M1447,468m0,19.100835496539666a19.100835496539666,19.100835496539666 0 1,1 0,-38.20167099307933a19.100835496539666,19.100835496539666 0 1,1 0,38.20167099307933z" style="fill: rgb(18, 162, 90); stroke: rgb(18, 162, 90); opacity: 0.8;"></path><path class="node" d="M1478,465m0,20.497996646707335a20.497996646707335,20.497996646707335 0 1,1 0,-40.99599329341467a20.497996646707335,20.497996646707335 0 1,1 0,40.99599329341467z" style="fill: rgb(18, 162, 90); stroke: rgb(18, 162, 90); opacity: 0.8;"></path><path class="node" d="M1276,460m0,17.591761006613503a17.591761006613503,17.591761006613503 0 1,1 0,-35.183522013227005a17.591761006613503,17.591761006613503 0 1,1 0,35.183522013227005z" style="fill: rgb(18, 162, 90); stroke: rgb(18, 162, 90); opacity: 0.8;"></path><path class="node" d="M1509,456m0,18.700494426263997a18.700494426263997,18.700494426263997 0 1,1 0,-37.400988852527995a18.700494426263997,18.700494426263997 0 1,1 0,37.400988852527995z" style="fill: rgb(18, 162, 90); stroke: rgb(18, 162, 90); opacity: 0.8;"></path><path class="node" d="M1199,449m0,13.71621690056613a13.71621690056613,13.71621690056613 0 1,1 0,-27.43243380113226a13.71621690056613,13.71621690056613 0 1,1 0,27.43243380113226z" style="fill: rgb(18, 162, 90); stroke: rgb(18, 162, 90); opacity: 0.8;"></path><path class="node" d="M1238,437m0,16.95076928131385a16.95076928131385,16.95076928131385 0 1,1 0,-33.9015385626277a16.95076928131385,16.95076928131385 0 1,1 0,33.9015385626277z" style="fill: rgb(18, 162, 90); stroke: rgb(18, 162, 90); opacity: 0.8;"></path><path class="node" d="M1337,425m0,18.66160612735134a18.66160612735134,18.66160612735134 0 1,1 0,-37.32321225470268a18.66160612735134,18.66160612735134 0 1,1 0,37.32321225470268z" style="fill: rgb(18, 162, 90); stroke: rgb(18, 162, 90); opacity: 0.8;"></path><path class="node" d="M1172,423m0,14.775064392181081a14.775064392181081,14.775064392181081 0 1,1 0,-29.550128784362162a14.775064392181081,14.775064392181081 0 1,1 0,29.550128784362162z" style="fill: rgb(18, 162, 90); stroke: rgb(18, 162, 90); opacity: 0.8;"></path><path class="node" d="M1281,420m0,18.37161040829175a18.37161040829175,18.37161040829175 0 1,1 0,-36.7432208165835a18.37161040829175,18.37161040829175 0 1,1 0,36.7432208165835z" style="fill: rgb(18, 162, 90); stroke: rgb(18, 162, 90); opacity: 0.8;"></path><path class="node" d="M1361,420m0,18.013462307567327a18.013462307567327,18.013462307567327 0 1,1 0,-36.026924615134654a18.013462307567327,18.013462307567327 0 1,1 0,36.026924615134654z" style="fill: rgb(18, 162, 90); stroke: rgb(18, 162, 90); opacity: 0.8;"></path><path class="node" d="M1528,413m0,18.0295109072182a18.0295109072182,18.0295109072182 0 1,1 0,-36.0590218144364a18.0295109072182,18.0295109072182 0 1,1 0,36.0590218144364z" style="fill: rgb(18, 162, 90); stroke: rgb(18, 162, 90); opacity: 0.8;"></path><path class="node" d="M1477,403m0,18.816739131656824a18.816739131656824,18.816739131656824 0 1,1 0,-37.63347826331365a18.816739131656824,18.816739131656824 0 1,1 0,37.63347826331365z" style="fill: rgb(18, 162, 90); stroke: rgb(18, 162, 90); opacity: 0.8;"></path><path class="node" d="M1564,397m0,20.761810618411353a20.761810618411353,20.761810618411353 0 1,1 0,-41.523621236822706a20.761810618411353,20.761810618411353 0 1,1 0,41.523621236822706z" style="fill: rgb(18, 162, 90); stroke: rgb(18, 162, 90); opacity: 0.8;"></path><path class="node" d="M1427,395m0,15.970455017160146a15.970455017160146,15.970455017160146 0 1,1 0,-31.940910034320293a15.970455017160146,15.970455017160146 0 1,1 0,31.940910034320293z" style="fill: rgb(18, 162, 90); stroke: rgb(18, 162, 90); opacity: 0.8;"></path><path class="node" d="M1227,395m0,12.703605192094034a12.703605192094034,12.703605192094034 0 1,1 0,-25.40721038418807a12.703605192094034,12.703605192094034 0 1,1 0,25.40721038418807z" style="fill: rgb(18, 162, 90); stroke: rgb(18, 162, 90); opacity: 0.8;"></path><path class="node" d="M1190,393m0,11.573505523185311a11.573505523185311,11.573505523185311 0 1,1 0,-23.147011046370622a11.573505523185311,11.573505523185311 0 1,1 0,23.147011046370622z" style="fill: rgb(18, 162, 90); stroke: rgb(18, 162, 90); opacity: 0.8;"></path><path class="node" d="M1258,392m0,16.453842158438178a16.453842158438178,16.453842158438178 0 1,1 0,-32.907684316876356a16.453842158438178,16.453842158438178 0 1,1 0,32.907684316876356z" style="fill: rgb(18, 162, 90); stroke: rgb(18, 162, 90); opacity: 0.8;"></path><path class="node" d="M1151,383m0,17.043608686926532a17.043608686926532,17.043608686926532 0 1,1 0,-34.087217373853065a17.043608686926532,17.043608686926532 0 1,1 0,34.087217373853065z" style="fill: rgb(18, 162, 90); stroke: rgb(18, 162, 90); opacity: 0.8;"></path><path class="node" d="M1551,377m0,19.695402301835806a19.695402301835806,19.695402301835806 0 1,1 0,-39.39080460367161a19.695402301835806,19.695402301835806 0 1,1 0,39.39080460367161z" style="fill: rgb(18, 162, 90); stroke: rgb(18, 162, 90); opacity: 0.8;"></path><path class="node" d="M1339,374m0,17.5753672361903a17.5753672361903,17.5753672361903 0 1,1 0,-35.1507344723806a17.5753672361903,17.5753672361903 0 1,1 0,35.1507344723806z" style="fill: rgb(18, 162, 90); stroke: rgb(18, 162, 90); opacity: 0.8;"></path><path class="node" d="M1183,370m0,14.302798011747061a14.302798011747061,14.302798011747061 0 1,1 0,-28.605596023494122a14.302798011747061,14.302798011747061 0 1,1 0,28.605596023494122z" style="fill: rgb(18, 162, 90); stroke: rgb(18, 162, 90); opacity: 0.8;"></path><path class="node" d="M1607,370m0,19.90975151638218a19.90975151638218,19.90975151638218 0 1,1 0,-39.81950303276436a19.90975151638218,19.90975151638218 0 1,1 0,39.81950303276436z" style="fill: rgb(18, 162, 90); stroke: rgb(18, 162, 90); opacity: 0.8;"></path><path class="node" d="M1250,364m0,15.382598213479012a15.382598213479012,15.382598213479012 0 1,1 0,-30.765196426958024a15.382598213479012,15.382598213479012 0 1,1 0,30.765196426958024z" style="fill: rgb(18, 162, 90); stroke: rgb(18, 162, 90); opacity: 0.8;"></path><path class="node" d="M1293,360m0,17.771229288810165a17.771229288810165,17.771229288810165 0 1,1 0,-35.54245857762033a17.771229288810165,17.771229288810165 0 1,1 0,35.54245857762033z" style="fill: rgb(18, 162, 90); stroke: rgb(18, 162, 90); opacity: 0.8;"></path><path class="node" d="M1384,352m0,17.4849644111536a17.4849644111536,17.4849644111536 0 1,1 0,-34.9699288223072a17.4849644111536,17.4849644111536 0 1,1 0,34.9699288223072z" style="fill: rgb(18, 162, 90); stroke: rgb(18, 162, 90); opacity: 0.8;"></path><path class="node" d="M1222,351m0,16.165290156012713a16.165290156012713,16.165290156012713 0 1,1 0,-32.330580312025425a16.165290156012713,16.165290156012713 0 1,1 0,32.330580312025425z" style="fill: rgb(18, 162, 90); stroke: rgb(18, 162, 90); opacity: 0.8;"></path><path class="node" d="M1544,350m0,19.039722720905104a19.039722720905104,19.039722720905104 0 1,1 0,-38.07944544181021a19.039722720905104,19.039722720905104 0 1,1 0,38.07944544181021z" style="fill: rgb(18, 162, 90); stroke: rgb(18, 162, 90); opacity: 0.8;"></path><path class="node" d="M1148,344m0,15.382598213479012a15.382598213479012,15.382598213479012 0 1,1 0,-30.765196426958024a15.382598213479012,15.382598213479012 0 1,1 0,30.765196426958024z" style="fill: rgb(18, 162, 90); stroke: rgb(18, 162, 90); opacity: 0.8;"></path><path class="node" d="M1187,344m0,14.689278899820046a14.689278899820046,14.689278899820046 0 1,1 0,-29.37855779964009a14.689278899820046,14.689278899820046 0 1,1 0,29.37855779964009z" style="fill: rgb(18, 162, 90); stroke: rgb(18, 162, 90); opacity: 0.8;"></path><path class="node" d="M1474,341m0,16.014913107714555a16.014913107714555,16.014913107714555 0 1,1 0,-32.02982621542911a16.014913107714555,16.014913107714555 0 1,1 0,32.02982621542911z" style="fill: rgb(18, 162, 90); stroke: rgb(18, 162, 90); opacity: 0.8;"></path><path class="node" d="M1404,333m0,18.622647160811688a18.622647160811688,18.622647160811688 0 1,1 0,-37.245294321623376a18.622647160811688,18.622647160811688 0 1,1 0,37.245294321623376z" style="fill: rgb(18, 162, 90); stroke: rgb(18, 162, 90); opacity: 0.8;"></path><path class="node" d="M1255,331m0,17.27798799518699a17.27798799518699,17.27798799518699 0 1,1 0,-34.55597599037398a17.27798799518699,17.27798799518699 0 1,1 0,34.55597599037398z" style="fill: rgb(18, 162, 90); stroke: rgb(18, 162, 90); opacity: 0.8;"></path><path class="node" d="M1117,330m0,13.81709681571412a13.81709681571412,13.81709681571412 0 1,1 0,-27.63419363142824a13.81709681571412,13.81709681571412 0 1,1 0,27.63419363142824z" style="fill: rgb(18, 162, 90); stroke: rgb(18, 162, 90); opacity: 0.8;"></path><path class="node" d="M1041,327m0,14.29302388021356a14.29302388021356,14.29302388021356 0 1,1 0,-28.58604776042712a14.29302388021356,14.29302388021356 0 1,1 0,28.58604776042712z" style="fill: rgb(18, 162, 90); stroke: rgb(18, 162, 90); opacity: 0.8;"></path><path class="node" d="M1288,324m0,15.836443646176406a15.836443646176406,15.836443646176406 0 1,1 0,-31.67288729235281a15.836443646176406,15.836443646176406 0 1,1 0,31.67288729235281z" style="fill: rgb(18, 162, 90); stroke: rgb(18, 162, 90); opacity: 0.8;"></path><path class="node" d="M1599,322m0,18.716030044838263a18.716030044838263,18.716030044838263 0 1,1 0,-37.432060089676526a18.716030044838263,18.716030044838263 0 1,1 0,37.432060089676526z" style="fill: rgb(18, 162, 90); stroke: rgb(18, 162, 90); opacity: 0.8;"></path><path class="node" d="M1268,317m0,16.068124375764008a16.068124375764008,16.068124375764008 0 1,1 0,-32.136248751528015a16.068124375764008,16.068124375764008 0 1,1 0,32.136248751528015z" style="fill: rgb(18, 162, 90); stroke: rgb(18, 162, 90); opacity: 0.8;"></path><path class="node" d="M1331,315m0,15.160674272621204a15.160674272621204,15.160674272621204 0 1,1 0,-30.321348545242408a15.160674272621204,15.160674272621204 0 1,1 0,30.321348545242408z" style="fill: rgb(18, 162, 90); stroke: rgb(18, 162, 90); opacity: 0.8;"></path><path class="node" d="M1234,310m0,13.563729383533216a13.563729383533216,13.563729383533216 0 1,1 0,-27.127458767066432a13.563729383533216,13.563729383533216 0 1,1 0,27.127458767066432z" style="fill: rgb(18, 162, 90); stroke: rgb(18, 162, 90); opacity: 0.8;"></path><path class="node" d="M1202,308m0,15.262728298494707a15.262728298494707,15.262728298494707 0 1,1 0,-30.525456596989414a15.262728298494707,15.262728298494707 0 1,1 0,30.525456596989414z" style="fill: rgb(18, 162, 90); stroke: rgb(18, 162, 90); opacity: 0.8;"></path><path class="node" d="M1518,308m0,17.860378187791063a17.860378187791063,17.860378187791063 0 1,1 0,-35.72075637558213a17.860378187791063,17.860378187791063 0 1,1 0,35.72075637558213z" style="fill: rgb(18, 162, 90); stroke: rgb(18, 162, 90); opacity: 0.8;"></path><path class="node" d="M1400,306m0,15.728535843657099a15.728535843657099,15.728535843657099 0 1,1 0,-31.457071687314198a15.728535843657099,15.728535843657099 0 1,1 0,31.457071687314198z" style="fill: rgb(18, 162, 90); stroke: rgb(18, 162, 90); opacity: 0.8;"></path><path class="node" d="M1187,302m0,13.170903738760819a13.170903738760819,13.170903738760819 0 1,1 0,-26.341807477521638a13.170903738760819,13.170903738760819 0 1,1 0,26.341807477521638z" style="fill: rgb(18, 162, 90); stroke: rgb(18, 162, 90); opacity: 0.8;"></path><path class="node" d="M1367,299m0,14.214628428831508a14.214628428831508,14.214628428831508 0 1,1 0,-28.429256857663017a14.214628428831508,14.214628428831508 0 1,1 0,28.429256857663017z" style="fill: rgb(18, 162, 90); stroke: rgb(18, 162, 90); opacity: 0.8;"></path><path class="node" d="M1455,299m0,16.023792110596958a16.023792110596958,16.023792110596958 0 1,1 0,-32.047584221193915a16.023792110596958,16.023792110596958 0 1,1 0,32.047584221193915z" style="fill: rgb(18, 162, 90); stroke: rgb(18, 162, 90); opacity: 0.8;"></path><path class="node" d="M1074,295m0,12.584559659661064a12.584559659661064,12.584559659661064 0 1,1 0,-25.169119319322128a12.584559659661064,12.584559659661064 0 1,1 0,25.169119319322128z" style="fill: rgb(18, 162, 90); stroke: rgb(18, 162, 90); opacity: 0.8;"></path><path class="node" d="M1159,295m0,13.337471173094665a13.337471173094665,13.337471173094665 0 1,1 0,-26.67494234618933a13.337471173094665,13.337471173094665 0 1,1 0,26.67494234618933z" style="fill: rgb(18, 162, 90); stroke: rgb(18, 162, 90); opacity: 0.8;"></path><path class="node" d="M1048,288m0,10.535839925349883a10.535839925349883,10.535839925349883 0 1,1 0,-21.071679850699766a10.535839925349883,10.535839925349883 0 1,1 0,21.071679850699766z" style="fill: rgb(18, 162, 90); stroke: rgb(18, 162, 90); opacity: 0.8;"></path><path class="node" d="M1560,285m0,18.544515674686487a18.544515674686487,18.544515674686487 0 1,1 0,-37.08903134937297a18.544515674686487,18.544515674686487 0 1,1 0,37.08903134937297z" style="fill: rgb(18, 162, 90); stroke: rgb(18, 162, 90); opacity: 0.8;"></path><path class="node" d="M1025,279m0,11.42151507754819a11.42151507754819,11.42151507754819 0 1,1 0,-22.84303015509638a11.42151507754819,11.42151507754819 0 1,1 0,22.84303015509638z" style="fill: rgb(18, 162, 90); stroke: rgb(18, 162, 90); opacity: 0.8;"></path><path class="node" d="M1118,268m0,11.940950598803203a11.940950598803203,11.940950598803203 0 1,1 0,-23.881901197606407a11.940950598803203,11.940950598803203 0 1,1 0,23.881901197606407z" style="fill: rgb(18, 162, 90); stroke: rgb(18, 162, 90); opacity: 0.8;"></path><path class="node" d="M1469,265m0,14.234261160825527a14.234261160825527,14.234261160825527 0 1,1 0,-28.468522321651054a14.234261160825527,14.234261160825527 0 1,1 0,28.468522321651054z" style="fill: rgb(18, 162, 90); stroke: rgb(18, 162, 90); opacity: 0.8;"></path><path class="node" d="M1527,255m0,16.497185322731074a16.497185322731074,16.497185322731074 0 1,1 0,-32.99437064546215a16.497185322731074,16.497185322731074 0 1,1 0,32.99437064546215z" style="fill: rgb(18, 162, 90); stroke: rgb(18, 162, 90); opacity: 0.8;"></path><path class="node" d="M1375,255m0,12.288369434379353a12.288369434379353,12.288369434379353 0 1,1 0,-24.576738868758707a12.288369434379353,12.288369434379353 0 1,1 0,24.576738868758707z" style="fill: rgb(18, 162, 90); stroke: rgb(18, 162, 90); opacity: 0.8;"></path><path class="node" d="M1500,253m0,16.549068810308654a16.549068810308654,16.549068810308654 0 1,1 0,-33.09813762061731a16.549068810308654,16.549068810308654 0 1,1 0,33.09813762061731z" style="fill: rgb(18, 162, 90); stroke: rgb(18, 162, 90); opacity: 0.8;"></path><path class="node" d="M989,252m0,12.132473067984716a12.132473067984716,12.132473067984716 0 1,1 0,-24.26494613596943a12.132473067984716,12.132473067984716 0 1,1 0,24.26494613596943z" style="fill: rgb(18, 162, 90); stroke: rgb(18, 162, 90); opacity: 0.8;"></path><path class="node" d="M1579,249m0,17.591761006613503a17.591761006613503,17.591761006613503 0 1,1 0,-35.183522013227005a17.591761006613503,17.591761006613503 0 1,1 0,35.183522013227005z" style="fill: rgb(18, 162, 90); stroke: rgb(18, 162, 90); opacity: 0.8;"></path><path class="node" d="M1039,245m0,13.706094952791778a13.706094952791778,13.706094952791778 0 1,1 0,-27.412189905583556a13.706094952791778,13.706094952791778 0 1,1 0,27.412189905583556z" style="fill: rgb(18, 162, 90); stroke: rgb(18, 162, 90); opacity: 0.8;"></path><path class="node" d="M1080,244m0,13.927361100224557a13.927361100224557,13.927361100224557 0 1,1 0,-27.854722200449114a13.927361100224557,13.927361100224557 0 1,1 0,27.854722200449114z" style="fill: rgb(18, 162, 90); stroke: rgb(18, 162, 90); opacity: 0.8;"></path><path class="node" d="M1406,240m0,12.409736839419356a12.409736839419356,12.409736839419356 0 1,1 0,-24.819473678838712a12.409736839419356,12.409736839419356 0 1,1 0,24.819473678838712z" style="fill: rgb(18, 162, 90); stroke: rgb(18, 162, 90); opacity: 0.8;"></path><path class="node" d="M1462,232m0,15.437656733924165a15.437656733924165,15.437656733924165 0 1,1 0,-30.87531346784833a15.437656733924165,15.437656733924165 0 1,1 0,30.87531346784833z" style="fill: rgb(18, 162, 90); stroke: rgb(18, 162, 90); opacity: 0.8;"></path><path class="node" d="M1278,220m0,11.608352197637657a11.608352197637657,11.608352197637657 0 1,1 0,-23.216704395275315a11.608352197637657,11.608352197637657 0 1,1 0,23.216704395275315z" style="fill: rgb(18, 162, 90); stroke: rgb(18, 162, 90); opacity: 0.8;"></path><path class="node" d="M1540,218m0,19.53141876760691a19.53141876760691,19.53141876760691 0 1,1 0,-39.06283753521382a19.53141876760691,19.53141876760691 0 1,1 0,39.06283753521382z" style="fill: rgb(18, 162, 90); stroke: rgb(18, 162, 90); opacity: 0.8;"></path><path class="node" d="M1606,214m0,18.947731229662136a18.947731229662136,18.947731229662136 0 1,1 0,-37.89546245932427a18.947731229662136,18.947731229662136 0 1,1 0,37.89546245932427z" style="fill: rgb(18, 162, 90); stroke: rgb(18, 162, 90); opacity: 0.8;"></path><path class="node" d="M1412,213m0,14.879347328695218a14.879347328695218,14.879347328695218 0 1,1 0,-29.758694657390436a14.879347328695218,14.879347328695218 0 1,1 0,29.758694657390436z" style="fill: rgb(18, 162, 90); stroke: rgb(18, 162, 90); opacity: 0.8;"></path><path class="node" d="M1509,212m0,18.30838424034641a18.30838424034641,18.30838424034641 0 1,1 0,-36.61676848069282a18.30838424034641,18.30838424034641 0 1,1 0,36.61676848069282z" style="fill: rgb(18, 162, 90); stroke: rgb(18, 162, 90); opacity: 0.8;"></path><path class="node" d="M1374,198m0,16.358141626188814a16.358141626188814,16.358141626188814 0 1,1 0,-32.71628325237763a16.358141626188814,16.358141626188814 0 1,1 0,32.71628325237763z" style="fill: rgb(18, 162, 90); stroke: rgb(18, 162, 90); opacity: 0.8;"></path><path class="node" d="M1097,189m0,14.273458808656184a14.273458808656184,14.273458808656184 0 1,1 0,-28.546917617312367a14.273458808656184,14.273458808656184 0 1,1 0,28.546917617312367z" style="fill: rgb(18, 162, 90); stroke: rgb(18, 162, 90); opacity: 0.8;"></path><path class="node" d="M1473,185m0,19.85819789392866a19.85819789392866,19.85819789392866 0 1,1 0,-39.71639578785732a19.85819789392866,19.85819789392866 0 1,1 0,39.71639578785732z" style="fill: rgb(18, 162, 90); stroke: rgb(18, 162, 90); opacity: 0.8;"></path><path class="node" d="M1041,174m0,14.16544706989688a14.16544706989688,14.16544706989688 0 1,1 0,-28.33089413979376a14.16544706989688,14.16544706989688 0 1,1 0,28.33089413979376z" style="fill: rgb(18, 162, 90); stroke: rgb(18, 162, 90); opacity: 0.8;"></path><path class="node" d="M1374,169m0,14.361325745071309a14.361325745071309,14.361325745071309 0 1,1 0,-28.722651490142617a14.361325745071309,14.361325745071309 0 1,1 0,28.722651490142617z" style="fill: rgb(18, 162, 90); stroke: rgb(18, 162, 90); opacity: 0.8;"></path><path class="node" d="M1552,165m0,20.648093498915614a20.648093498915614,20.648093498915614 0 1,1 0,-41.29618699783123a20.648093498915614,20.648093498915614 0 1,1 0,41.29618699783123z" style="fill: rgb(18, 162, 90); stroke: rgb(18, 162, 90); opacity: 0.8;"></path><path class="node" d="M1402,161m0,19.222551767794695a19.222551767794695,19.222551767794695 0 1,1 0,-38.44510353558939a19.222551767794695,19.222551767794695 0 1,1 0,38.44510353558939z" style="fill: rgb(18, 162, 90); stroke: rgb(18, 162, 90); opacity: 0.8;"></path><path class="node" d="M1113,160m0,15.872274168441558a15.872274168441558,15.872274168441558 0 1,1 0,-31.744548336883117a15.872274168441558,15.872274168441558 0 1,1 0,31.744548336883117z" style="fill: rgb(18, 162, 90); stroke: rgb(18, 162, 90); opacity: 0.8;"></path><path class="node" d="M1355,158m0,15.809525426611131a15.809525426611131,15.809525426611131 0 1,1 0,-31.619050853222262a15.809525426611131,15.809525426611131 0 1,1 0,31.619050853222262z" style="fill: rgb(18, 162, 90); stroke: rgb(18, 162, 90); opacity: 0.8;"></path><path class="node" d="M1156,153m0,10.141377108902578a10.141377108902578,10.141377108902578 0 1,1 0,-20.282754217805156a10.141377108902578,10.141377108902578 0 1,1 0,20.282754217805156z" style="fill: rgb(18, 162, 90); stroke: rgb(18, 162, 90); opacity: 0.8;"></path><path class="node" d="M1511,146m0,20.14394865963835a20.14394865963835,20.14394865963835 0 1,1 0,-40.2878973192767a20.14394865963835,20.14394865963835 0 1,1 0,40.2878973192767z" style="fill: rgb(18, 162, 90); stroke: rgb(18, 162, 90); opacity: 0.8;"></path><path class="node" d="M1063,146m0,16.094673747678673a16.094673747678673,16.094673747678673 0 1,1 0,-32.189347495357346a16.094673747678673,16.094673747678673 0 1,1 0,32.189347495357346z" style="fill: rgb(18, 162, 90); stroke: rgb(18, 162, 90); opacity: 0.8;"></path><path class="node" d="M1427,145m0,18.316297875334985a18.316297875334985,18.316297875334985 0 1,1 0,-36.63259575066997a18.316297875334985,18.316297875334985 0 1,1 0,36.63259575066997z" style="fill: rgb(18, 162, 90); stroke: rgb(18, 162, 90); opacity: 0.8;"></path><path class="node" d="M1186,140m0,13.254403781649485a13.254403781649485,13.254403781649485 0 1,1 0,-26.50880756329897a13.254403781649485,13.254403781649485 0 1,1 0,26.50880756329897z" style="fill: rgb(18, 162, 90); stroke: rgb(18, 162, 90); opacity: 0.8;"></path><path class="node" d="M1134,131m0,13.897361333641618a13.897361333641618,13.897361333641618 0 1,1 0,-27.794722667283235a13.897361333641618,13.897361333641618 0 1,1 0,27.794722667283235z" style="fill: rgb(18, 162, 90); stroke: rgb(18, 162, 90); opacity: 0.8;"></path><path class="node" d="M1360,129m0,15.067391426513641a15.067391426513641,15.067391426513641 0 1,1 0,-30.134782853027282a15.067391426513641,15.067391426513641 0 1,1 0,30.134782853027282z" style="fill: rgb(18, 162, 90); stroke: rgb(18, 162, 90); opacity: 0.8;"></path><path class="node" d="M1589,129m0,22.47881779562956a22.47881779562956,22.47881779562956 0 1,1 0,-44.95763559125912a22.47881779562956,22.47881779562956 0 1,1 0,44.95763559125912z" style="fill: rgb(18, 162, 90); stroke: rgb(18, 162, 90); opacity: 0.8;"></path><path class="node" d="M1528,127m0,17.965242008200633a17.965242008200633,17.965242008200633 0 1,1 0,-35.930484016401266a17.965242008200633,17.965242008200633 0 1,1 0,35.930484016401266z" style="fill: rgb(18, 162, 90); stroke: rgb(18, 162, 90); opacity: 0.8;"></path><path class="node" d="M1471,119m0,18.053560623993768a18.053560623993768,18.053560623993768 0 1,1 0,-36.107121247987536a18.053560623993768,18.053560623993768 0 1,1 0,36.107121247987536z" style="fill: rgb(18, 162, 90); stroke: rgb(18, 162, 90); opacity: 0.8;"></path><path class="node" d="M1212,117m0,14.583854333046963a14.583854333046963,14.583854333046963 0 1,1 0,-29.167708666093926a14.583854333046963,14.583854333046963 0 1,1 0,29.167708666093926z" style="fill: rgb(18, 162, 90); stroke: rgb(18, 162, 90); opacity: 0.8;"></path><path class="node" d="M1121,114m0,14.526079298360155a14.526079298360155,14.526079298360155 0 1,1 0,-29.05215859672031a14.526079298360155,14.526079298360155 0 1,1 0,29.05215859672031z" style="fill: rgb(18, 162, 90); stroke: rgb(18, 162, 90); opacity: 0.8;"></path><path class="node" d="M1510,112m0,20.28187783416843a20.28187783416843,20.28187783416843 0 1,1 0,-40.56375566833686a20.28187783416843,20.28187783416843 0 1,1 0,40.56375566833686z" style="fill: rgb(18, 162, 90); stroke: rgb(18, 162, 90); opacity: 0.8;"></path><path class="node" d="M1252,109m0,15.970455017160146a15.970455017160146,15.970455017160146 0 1,1 0,-31.940910034320293a15.970455017160146,15.970455017160146 0 1,1 0,31.940910034320293z" style="fill: rgb(18, 162, 90); stroke: rgb(18, 162, 90); opacity: 0.8;"></path><path class="node" d="M1564,105m0,17.916909350397834a17.916909350397834,17.916909350397834 0 1,1 0,-35.83381870079567a17.916909350397834,17.916909350397834 0 1,1 0,35.83381870079567z" style="fill: rgb(18, 162, 90); stroke: rgb(18, 162, 90); opacity: 0.8;"></path><path class="node" d="M1405,103m0,16.27072391427873a16.27072391427873,16.27072391427873 0 1,1 0,-32.54144782855746a16.27072391427873,16.27072391427873 0 1,1 0,32.54144782855746z" style="fill: rgb(18, 162, 90); stroke: rgb(18, 162, 90); opacity: 0.8;"></path><path class="node" d="M1183,100m0,13.746545542198088a13.746545542198088,13.746545542198088 0 1,1 0,-27.493091084396177a13.746545542198088,13.746545542198088 0 1,1 0,27.493091084396177z" style="fill: rgb(18, 162, 90); stroke: rgb(18, 162, 90); opacity: 0.8;"></path><path class="node" d="M1324,100m0,17.949143645315708a17.949143645315708,17.949143645315708 0 1,1 0,-35.898287290631416a17.949143645315708,17.949143645315708 0 1,1 0,35.898287290631416z" style="fill: rgb(18, 162, 90); stroke: rgb(18, 162, 90); opacity: 0.8;"></path><path class="node" d="M1608,91m0,25.092558116615745a25.092558116615745,25.092558116615745 0 1,1 0,-50.18511623323149a25.092558116615745,25.092558116615745 0 1,1 0,50.18511623323149z" style="fill: rgb(18, 162, 90); stroke: rgb(18, 162, 90); opacity: 0.8;"></path><path class="node" d="M1157,86m0,13.746545542198088a13.746545542198088,13.746545542198088 0 1,1 0,-27.493091084396177a13.746545542198088,13.746545542198088 0 1,1 0,27.493091084396177z" style="fill: rgb(18, 162, 90); stroke: rgb(18, 162, 90); opacity: 0.8;"></path><path class="node" d="M1546,84m0,23.11831933358634a23.11831933358634,23.11831933358634 0 1,1 0,-46.23663866717268a23.11831933358634,23.11831933358634 0 1,1 0,46.23663866717268z" style="fill: rgb(18, 162, 90); stroke: rgb(18, 162, 90); opacity: 0.8;"></path><path class="node" d="M1415,73m0,22.099302378492965a22.099302378492965,22.099302378492965 0 1,1 0,-44.19860475698593a22.099302378492965,22.099302378492965 0 1,1 0,44.19860475698593z" style="fill: rgb(18, 162, 90); stroke: rgb(18, 162, 90); opacity: 0.8;"></path><path class="node" d="M1134,73m0,15.574580376087802a15.574580376087802,15.574580376087802 0 1,1 0,-31.149160752175604a15.574580376087802,15.574580376087802 0 1,1 0,31.149160752175604z" style="fill: rgb(18, 162, 90); stroke: rgb(18, 162, 90); opacity: 0.8;"></path><path class="node" d="M1194,68m0,16.130014919442814a16.130014919442814,16.130014919442814 0 1,1 0,-32.26002983888563a16.130014919442814,16.130014919442814 0 1,1 0,32.26002983888563z" style="fill: rgb(18, 162, 90); stroke: rgb(18, 162, 90); opacity: 0.8;"></path><path class="node" d="M1343,55m0,16.678172211396518a16.678172211396518,16.678172211396518 0 1,1 0,-33.356344422793036a16.678172211396518,16.678172211396518 0 1,1 0,33.356344422793036z" style="fill: rgb(18, 162, 90); stroke: rgb(18, 162, 90); opacity: 0.8;"></path><path class="node" d="M1600,50m0,24.19171466920686a24.19171466920686,24.19171466920686 0 1,1 0,-48.38342933841372a24.19171466920686,24.19171466920686 0 1,1 0,48.38342933841372z" style="fill: rgb(18, 162, 90); stroke: rgb(18, 162, 90); opacity: 0.8;"></path><path class="node" d="M1385,49m0,20.818463663198603a20.818463663198603,20.818463663198603 0 1,1 0,-41.636927326397206a20.818463663198603,20.818463663198603 0 1,1 0,41.636927326397206z" style="fill: rgb(18, 162, 90); stroke: rgb(18, 162, 90); opacity: 0.8;"></path><path class="node" d="M1282,46m0,15.400969582524786a15.400969582524786,15.400969582524786 0 1,1 0,-30.80193916504957a15.400969582524786,15.400969582524786 0 1,1 0,30.80193916504957z" style="fill: rgb(18, 162, 90); stroke: rgb(18, 162, 90); opacity: 0.8;"></path><path class="node" d="M1261,45m0,16.497185322731074a16.497185322731074,16.497185322731074 0 1,1 0,-32.99437064546215a16.497185322731074,16.497185322731074 0 1,1 0,32.99437064546215z" style="fill: rgb(18, 162, 90); stroke: rgb(18, 162, 90); opacity: 0.8;"></path><path class="node" d="M1485,44m0,18.98610827189329a18.98610827189329,18.98610827189329 0 1,1 0,-37.97221654378658a18.98610827189329,18.98610827189329 0 1,1 0,37.97221654378658z" style="fill: rgb(18, 162, 90); stroke: rgb(18, 162, 90); opacity: 0.8;"></path><path class="node" d="M1244,42m0,17.418962737894287a17.418962737894287,17.418962737894287 0 1,1 0,-34.83792547578857a17.418962737894287,17.418962737894287 0 1,1 0,34.83792547578857z" style="fill: rgb(18, 162, 90); stroke: rgb(18, 162, 90); opacity: 0.8;"></path><path class="node" d="M1438,39m0,20.818463663198603a20.818463663198603,20.818463663198603 0 1,1 0,-41.636927326397206a20.818463663198603,20.818463663198603 0 1,1 0,41.636927326397206z" style="fill: rgb(18, 162, 90); stroke: rgb(18, 162, 90); opacity: 0.8;"></path><path class="node" d="M1528,33m0,18.970765581430673a18.970765581430673,18.970765581430673 0 1,1 0,-37.941531162861345a18.970765581430673,18.970765581430673 0 1,1 0,37.941531162861345z" style="fill: rgb(18, 162, 90); stroke: rgb(18, 162, 90); opacity: 0.8;"></path><path class="node" d="M1373,6m0,22.193051073976775a22.193051073976775,22.193051073976775 0 1,1 0,-44.38610214795355a22.193051073976775,22.193051073976775 0 1,1 0,44.38610214795355z" style="fill: rgb(18, 162, 90); stroke: rgb(18, 162, 90); opacity: 0.8;"></path><path class="node" d="M1216,4m0,16.28823952198756a16.28823952198756,16.28823952198756 0 1,1 0,-32.57647904397512a16.28823952198756,16.28823952198756 0 1,1 0,32.57647904397512z" style="fill: rgb(18, 162, 90); stroke: rgb(18, 162, 90); opacity: 0.8;"></path><path class="node" d="M1323,2m0,18.268771431203543a18.268771431203543,18.268771431203543 0 1,1 0,-36.537542862407086a18.268771431203543,18.268771431203543 0 1,1 0,36.537542862407086z" style="fill: rgb(18, 162, 90); stroke: rgb(18, 162, 90); opacity: 0.8;"></path><path class="node" d="M1606,0m0,21.82269752112788a21.82269752112788,21.82269752112788 0 1,1 0,-43.64539504225576a21.82269752112788,21.82269752112788 0 1,1 0,43.64539504225576z" style="fill: rgb(18, 162, 90); stroke: rgb(18, 162, 90); opacity: 0.8;"></path><path class="node" d="M1539,-9m0,19.396348418786577a19.396348418786577,19.396348418786577 0 1,1 0,-38.79269683757315a19.396348418786577,19.396348418786577 0 1,1 0,38.79269683757315z" style="fill: rgb(18, 162, 90); stroke: rgb(18, 162, 90); opacity: 0.8;"></path><path class="node" d="M1268,-18m0,16.22686426741003a16.22686426741003,16.22686426741003 0 1,1 0,-32.45372853482006a16.22686426741003,16.22686426741003 0 1,1 0,32.45372853482006z" style="fill: rgb(18, 162, 90); stroke: rgb(18, 162, 90); opacity: 0.8;"></path><path class="node" d="M1292,-19m0,16.42778930709621a16.42778930709621,16.42778930709621 0 1,1 0,-32.85557861419242a16.42778930709621,16.42778930709621 0 1,1 0,32.85557861419242z" style="fill: rgb(18, 162, 90); stroke: rgb(18, 162, 90); opacity: 0.8;"></path></g></g><g class="leaflet-zoom-hide"><g class="layer" transform="translate(-683,64)"><path class="node" d="M1570,578m0,13.736442183878678a13.736442183878678,13.736442183878678 0 1,1 0,-27.472884367757356a13.736442183878678,13.736442183878678 0 1,1 0,27.472884367757356z" style="fill: rgb(232, 40, 68); stroke: rgb(232, 40, 68); opacity: 0.8;"></path><path class="node" d="M1560,562m0,14.850967707716231a14.850967707716231,14.850967707716231 0 1,1 0,-29.701935415432462a14.850967707716231,14.850967707716231 0 1,1 0,29.701935415432462z" style="fill: rgb(232, 40, 68); stroke: rgb(232, 40, 68); opacity: 0.8;"></path><path class="node" d="M1545,520m0,15.271977324348594a15.271977324348594,15.271977324348594 0 1,1 0,-30.543954648697188a15.271977324348594,15.271977324348594 0 1,1 0,30.543954648697188z" style="fill: rgb(232, 40, 68); stroke: rgb(232, 40, 68); opacity: 0.8;"></path><path class="node" d="M1380,511m0,15.934812493551785a15.934812493551785,15.934812493551785 0 1,1 0,-31.86962498710357a15.934812493551785,15.934812493551785 0 1,1 0,31.86962498710357z" style="fill: rgb(232, 40, 68); stroke: rgb(232, 40, 68); opacity: 0.8;"></path><path class="node" d="M1600,510m0,12.832437654444421a12.832437654444421,12.832437654444421 0 1,1 0,-25.664875308888842a12.832437654444421,12.832437654444421 0 1,1 0,25.664875308888842z" style="fill: rgb(232, 40, 68); stroke: rgb(232, 40, 68); opacity: 0.8;"></path><path class="node" d="M1422,495m0,16.925373521300415a16.925373521300415,16.925373521300415 0 1,1 0,-33.85074704260083a16.925373521300415,16.925373521300415 0 1,1 0,33.85074704260083z" style="fill: rgb(232, 40, 68); stroke: rgb(232, 40, 68); opacity: 0.8;"></path><path class="node" d="M1569,495m0,11.515238936786757a11.515238936786757,11.515238936786757 0 1,1 0,-23.030477873573513a11.515238936786757,11.515238936786757 0 1,1 0,23.030477873573513z" style="fill: rgb(232, 40, 68); stroke: rgb(232, 40, 68); opacity: 0.8;"></path><path class="node" d="M1365,491m0,16.797900527026382a16.797900527026382,16.797900527026382 0 1,1 0,-33.595801054052764a16.797900527026382,16.797900527026382 0 1,1 0,33.595801054052764z" style="fill: rgb(232, 40, 68); stroke: rgb(232, 40, 68); opacity: 0.8;"></path><path class="node" d="M1339,471m0,14.400233448240352a14.400233448240352,14.400233448240352 0 1,1 0,-28.800466896480703a14.400233448240352,14.400233448240352 0 1,1 0,28.800466896480703z" style="fill: rgb(232, 40, 68); stroke: rgb(232, 40, 68); opacity: 0.8;"></path><path class="node" d="M1447,468m0,13.645232257349855a13.645232257349855,13.645232257349855 0 1,1 0,-27.29046451469971a13.645232257349855,13.645232257349855 0 1,1 0,27.29046451469971z" style="fill: rgb(232, 40, 68); stroke: rgb(232, 40, 68); opacity: 0.8;"></path><path class="node" d="M1478,465m0,14.458430324923258a14.458430324923258,14.458430324923258 0 1,1 0,-28.916860649846516a14.458430324923258,14.458430324923258 0 1,1 0,28.916860649846516z" style="fill: rgb(232, 40, 68); stroke: rgb(232, 40, 68); opacity: 0.8;"></path><path class="node" d="M1276,460m0,11.362622204400477a11.362622204400477,11.362622204400477 0 1,1 0,-22.725244408800954a11.362622204400477,11.362622204400477 0 1,1 0,22.725244408800954z" style="fill: rgb(232, 40, 68); stroke: rgb(232, 40, 68); opacity: 0.8;"></path><path class="node" d="M1509,456m0,13.533060808186098a13.533060808186098,13.533060808186098 0 1,1 0,-27.066121616372197a13.533060808186098,13.533060808186098 0 1,1 0,27.066121616372197z" style="fill: rgb(232, 40, 68); stroke: rgb(232, 40, 68); opacity: 0.8;"></path><path class="node" d="M1199,449m0,10.269926270614395a10.269926270614395,10.269926270614395 0 1,1 0,-20.53985254122879a10.269926270614395,10.269926270614395 0 1,1 0,20.53985254122879z" style="fill: rgb(232, 40, 68); stroke: rgb(232, 40, 68); opacity: 0.8;"></path><path class="node" d="M1238,437m0,13.128989345177613a13.128989345177613,13.128989345177613 0 1,1 0,-26.257978690355227a13.128989345177613,13.128989345177613 0 1,1 0,26.257978690355227z" style="fill: rgb(232, 40, 68); stroke: rgb(232, 40, 68); opacity: 0.8;"></path><path class="node" d="M1337,425m0,13.624894506263649a13.624894506263649,13.624894506263649 0 1,1 0,-27.249789012527298a13.624894506263649,13.624894506263649 0 1,1 0,27.249789012527298z" style="fill: rgb(232, 40, 68); stroke: rgb(232, 40, 68); opacity: 0.8;"></path><path class="node" d="M1172,423m0,10.734928884526315a10.734928884526315,10.734928884526315 0 1,1 0,-21.46985776905263a10.734928884526315,10.734928884526315 0 1,1 0,21.46985776905263z" style="fill: rgb(232, 40, 68); stroke: rgb(232, 40, 68); opacity: 0.8;"></path><path class="node" d="M1281,420m0,13.573939459398385a13.573939459398385,13.573939459398385 0 1,1 0,-27.14787891879677a13.573939459398385,13.573939459398385 0 1,1 0,27.14787891879677z" style="fill: rgb(232, 40, 68); stroke: rgb(232, 40, 68); opacity: 0.8;"></path><path class="node" d="M1361,420m0,13.440707120740164a13.440707120740164,13.440707120740164 0 1,1 0,-26.88141424148033a13.440707120740164,13.440707120740164 0 1,1 0,26.88141424148033z" style="fill: rgb(232, 40, 68); stroke: rgb(232, 40, 68); opacity: 0.8;"></path><path class="node" d="M1528,413m0,12.725151619551578a12.725151619551578,12.725151619551578 0 1,1 0,-25.450303239103157a12.725151619551578,12.725151619551578 0 1,1 0,25.450303239103157z" style="fill: rgb(232, 40, 68); stroke: rgb(232, 40, 68); opacity: 0.8;"></path><path class="node" d="M1477,403m0,13.81709681571412a13.81709681571412,13.81709681571412 0 1,1 0,-27.63419363142824a13.81709681571412,13.81709681571412 0 1,1 0,27.63419363142824z" style="fill: rgb(232, 40, 68); stroke: rgb(232, 40, 68); opacity: 0.8;"></path><path class="node" d="M1564,397m0,15.197851866320779a15.197851866320779,15.197851866320779 0 1,1 0,-30.395703732641557a15.197851866320779,15.197851866320779 0 1,1 0,30.395703732641557z" style="fill: rgb(232, 40, 68); stroke: rgb(232, 40, 68); opacity: 0.8;"></path><path class="node" d="M1427,395m0,11.677793539099856a11.677793539099856,11.677793539099856 0 1,1 0,-23.35558707819971a11.677793539099856,11.677793539099856 0 1,1 0,23.35558707819971z" style="fill: rgb(232, 40, 68); stroke: rgb(232, 40, 68); opacity: 0.8;"></path><path class="node" d="M1227,395m0,9.681014068584794a9.681014068584794,9.681014068584794 0 1,1 0,-19.362028137169588a9.681014068584794,9.681014068584794 0 1,1 0,19.362028137169588z" style="fill: rgb(232, 40, 68); stroke: rgb(232, 40, 68); opacity: 0.8;"></path><path class="node" d="M1190,393m0,8.588175915870663a8.588175915870663,8.588175915870663 0 1,1 0,-17.176351831741325a8.588175915870663,8.588175915870663 0 1,1 0,17.176351831741325z" style="fill: rgb(232, 40, 68); stroke: rgb(232, 40, 68); opacity: 0.8;"></path><path class="node" d="M1258,392m0,11.78133453679526a11.78133453679526,11.78133453679526 0 1,1 0,-23.56266907359052a11.78133453679526,11.78133453679526 0 1,1 0,23.56266907359052z" style="fill: rgb(232, 40, 68); stroke: rgb(232, 40, 68); opacity: 0.8;"></path><path class="node" d="M1151,383m0,11.827117134019574a11.827117134019574,11.827117134019574 0 1,1 0,-23.654234268039147a11.827117134019574,11.827117134019574 0 1,1 0,23.654234268039147z" style="fill: rgb(232, 40, 68); stroke: rgb(232, 40, 68); opacity: 0.8;"></path><path class="node" d="M1551,377m0,14.736989380235263a14.736989380235263,14.736989380235263 0 1,1 0,-29.473978760470526a14.736989380235263,14.736989380235263 0 1,1 0,29.473978760470526z" style="fill: rgb(232, 40, 68); stroke: rgb(232, 40, 68); opacity: 0.8;"></path><path class="node" d="M1339,374m0,13.223142329948889a13.223142329948889,13.223142329948889 0 1,1 0,-26.446284659897778a13.223142329948889,13.223142329948889 0 1,1 0,26.446284659897778z" style="fill: rgb(232, 40, 68); stroke: rgb(232, 40, 68); opacity: 0.8;"></path><path class="node" d="M1183,370m0,10.269926270614395a10.269926270614395,10.269926270614395 0 1,1 0,-20.53985254122879a10.269926270614395,10.269926270614395 0 1,1 0,20.53985254122879z" style="fill: rgb(232, 40, 68); stroke: rgb(232, 40, 68); opacity: 0.8;"></path><path class="node" d="M1607,370m0,13.40980546821769a13.40980546821769,13.40980546821769 0 1,1 0,-26.81961093643538a13.40980546821769,13.40980546821769 0 1,1 0,26.81961093643538z" style="fill: rgb(232, 40, 68); stroke: rgb(232, 40, 68); opacity: 0.8;"></path><path class="node" d="M1250,364m0,12.266197435788918a12.266197435788918,12.266197435788918 0 1,1 0,-24.532394871577836a12.266197435788918,12.266197435788918 0 1,1 0,24.532394871577836z" style="fill: rgb(232, 40, 68); stroke: rgb(232, 40, 68); opacity: 0.8;"></path><path class="node" d="M1293,360m0,13.867307497056384a13.867307497056384,13.867307497056384 0 1,1 0,-27.734614994112768a13.867307497056384,13.867307497056384 0 1,1 0,27.734614994112768z" style="fill: rgb(232, 40, 68); stroke: rgb(232, 40, 68); opacity: 0.8;"></path><path class="node" d="M1384,352m0,13.5841431639195a13.5841431639195,13.5841431639195 0 1,1 0,-27.168286327839a13.5841431639195,13.5841431639195 0 1,1 0,27.168286327839z" style="fill: rgb(232, 40, 68); stroke: rgb(232, 40, 68); opacity: 0.8;"></path><path class="node" d="M1222,351m0,12.3546905101212a12.3546905101212,12.3546905101212 0 1,1 0,-24.7093810202424a12.3546905101212,12.3546905101212 0 1,1 0,24.7093810202424z" style="fill: rgb(232, 40, 68); stroke: rgb(232, 40, 68); opacity: 0.8;"></path><path class="node" d="M1544,350m0,14.04682524350973a14.04682524350973,14.04682524350973 0 1,1 0,-28.09365048701946a14.04682524350973,14.04682524350973 0 1,1 0,28.09365048701946z" style="fill: rgb(232, 40, 68); stroke: rgb(232, 40, 68); opacity: 0.8;"></path><path class="node" d="M1148,344m0,11.42151507754819a11.42151507754819,11.42151507754819 0 1,1 0,-22.84303015509638a11.42151507754819,11.42151507754819 0 1,1 0,22.84303015509638z" style="fill: rgb(232, 40, 68); stroke: rgb(232, 40, 68); opacity: 0.8;"></path><path class="node" d="M1187,344m0,11.088493622079381a11.088493622079381,11.088493622079381 0 1,1 0,-22.176987244158763a11.088493622079381,11.088493622079381 0 1,1 0,22.176987244158763z" style="fill: rgb(232, 40, 68); stroke: rgb(232, 40, 68); opacity: 0.8;"></path><path class="node" d="M1474,341m0,11.95228556085528a11.95228556085528,11.95228556085528 0 1,1 0,-23.90457112171056a11.95228556085528,11.95228556085528 0 1,1 0,23.90457112171056z" style="fill: rgb(232, 40, 68); stroke: rgb(232, 40, 68); opacity: 0.8;"></path><path class="node" d="M1404,333m0,13.867307497056384a13.867307497056384,13.867307497056384 0 1,1 0,-27.734614994112768a13.867307497056384,13.867307497056384 0 1,1 0,27.734614994112768z" style="fill: rgb(232, 40, 68); stroke: rgb(232, 40, 68); opacity: 0.8;"></path><path class="node" d="M1255,331m0,13.533060808186098a13.533060808186098,13.533060808186098 0 1,1 0,-27.066121616372197a13.533060808186098,13.533060808186098 0 1,1 0,27.066121616372197z" style="fill: rgb(232, 40, 68); stroke: rgb(232, 40, 68); opacity: 0.8;"></path><path class="node" d="M1117,330m0,10.20581078818005a10.20581078818005,10.20581078818005 0 1,1 0,-20.4116215763601a10.20581078818005,10.20581078818005 0 1,1 0,20.4116215763601z" style="fill: rgb(232, 40, 68); stroke: rgb(232, 40, 68); opacity: 0.8;"></path><path class="node" d="M1041,327m0,10.85788341377309a10.85788341377309,10.85788341377309 0 1,1 0,-21.71576682754618a10.85788341377309,10.85788341377309 0 1,1 0,21.71576682754618z" style="fill: rgb(232, 40, 68); stroke: rgb(232, 40, 68); opacity: 0.8;"></path><path class="node" d="M1288,324m0,11.895523187848202a11.895523187848202,11.895523187848202 0 1,1 0,-23.791046375696403a11.895523187848202,11.895523187848202 0 1,1 0,23.791046375696403z" style="fill: rgb(232, 40, 68); stroke: rgb(232, 40, 68); opacity: 0.8;"></path><path class="node" d="M1599,322m0,13.399491799816346a13.399491799816346,13.399491799816346 0 1,1 0,-26.79898359963269a13.399491799816346,13.399491799816346 0 1,1 0,26.79898359963269z" style="fill: rgb(232, 40, 68); stroke: rgb(232, 40, 68); opacity: 0.8;"></path><path class="node" d="M1268,317m0,12.735913611173235a12.735913611173235,12.735913611173235 0 1,1 0,-25.47182722234647a12.735913611173235,12.735913611173235 0 1,1 0,25.47182722234647z" style="fill: rgb(232, 40, 68); stroke: rgb(232, 40, 68); opacity: 0.8;"></path><path class="node" d="M1331,315m0,12.110068895280051a12.110068895280051,12.110068895280051 0 1,1 0,-24.220137790560102a12.110068895280051,12.110068895280051 0 1,1 0,24.220137790560102z" style="fill: rgb(232, 40, 68); stroke: rgb(232, 40, 68); opacity: 0.8;"></path><path class="node" d="M1234,310m0,10.598373549721856a10.598373549721856,10.598373549721856 0 1,1 0,-21.196747099443712a10.598373549721856,10.598373549721856 0 1,1 0,21.196747099443712z" style="fill: rgb(232, 40, 68); stroke: rgb(232, 40, 68); opacity: 0.8;"></path><path class="node" d="M1202,308m0,11.986238232115067a11.986238232115067,11.986238232115067 0 1,1 0,-23.972476464230134a11.986238232115067,11.986238232115067 0 1,1 0,23.972476464230134z" style="fill: rgb(232, 40, 68); stroke: rgb(232, 40, 68); opacity: 0.8;"></path><path class="node" d="M1518,308m0,13.675691747573094a13.675691747573094,13.675691747573094 0 1,1 0,-27.351383495146187a13.675691747573094,13.675691747573094 0 1,1 0,27.351383495146187z" style="fill: rgb(232, 40, 68); stroke: rgb(232, 40, 68); opacity: 0.8;"></path><path class="node" d="M1400,306m0,11.445003944757522a11.445003944757522,11.445003944757522 0 1,1 0,-22.890007889515044a11.445003944757522,11.445003944757522 0 1,1 0,22.890007889515044z" style="fill: rgb(232, 40, 68); stroke: rgb(232, 40, 68); opacity: 0.8;"></path><path class="node" d="M1187,302m0,9.681014068584794a9.681014068584794,9.681014068584794 0 1,1 0,-19.362028137169588a9.681014068584794,9.681014068584794 0 1,1 0,19.362028137169588z" style="fill: rgb(232, 40, 68); stroke: rgb(232, 40, 68); opacity: 0.8;"></path><path class="node" d="M1367,299m0,11.327168447860343a11.327168447860343,11.327168447860343 0 1,1 0,-22.654336895720686a11.327168447860343,11.327168447860343 0 1,1 0,22.654336895720686z" style="fill: rgb(232, 40, 68); stroke: rgb(232, 40, 68); opacity: 0.8;"></path><path class="node" d="M1455,299m0,12.3546905101212a12.3546905101212,12.3546905101212 0 1,1 0,-24.7093810202424a12.3546905101212,12.3546905101212 0 1,1 0,24.7093810202424z" style="fill: rgb(232, 40, 68); stroke: rgb(232, 40, 68); opacity: 0.8;"></path><path class="node" d="M1074,295m0,9.451157472888502a9.451157472888502,9.451157472888502 0 1,1 0,-18.902314945777004a9.451157472888502,9.451157472888502 0 1,1 0,18.902314945777004z" style="fill: rgb(232, 40, 68); stroke: rgb(232, 40, 68); opacity: 0.8;"></path><path class="node" d="M1159,295m0,9.90670600459773a9.90670600459773,9.90670600459773 0 1,1 0,-19.81341200919546a9.90670600459773,9.90670600459773 0 1,1 0,19.81341200919546z" style="fill: rgb(232, 40, 68); stroke: rgb(232, 40, 68); opacity: 0.8;"></path><path class="node" d="M1048,288m0,8.230111770766255a8.230111770766255,8.230111770766255 0 1,1 0,-16.46022354153251a8.230111770766255,8.230111770766255 0 1,1 0,16.46022354153251z" style="fill: rgb(232, 40, 68); stroke: rgb(232, 40, 68); opacity: 0.8;"></path><path class="node" d="M1560,285m0,13.655391693955124a13.655391693955124,13.655391693955124 0 1,1 0,-27.31078338791025a13.655391693955124,13.655391693955124 0 1,1 0,27.31078338791025z" style="fill: rgb(232, 40, 68); stroke: rgb(232, 40, 68); opacity: 0.8;"></path><path class="node" d="M1025,279m0,10.180075765389319a10.180075765389319,10.180075765389319 0 1,1 0,-20.360151530778637a10.180075765389319,10.180075765389319 0 1,1 0,20.360151530778637z" style="fill: rgb(232, 40, 68); stroke: rgb(232, 40, 68); opacity: 0.8;"></path><path class="node" d="M1118,268m0,9.423830840037994a9.423830840037994,9.423830840037994 0 1,1 0,-18.847661680075987a9.423830840037994,9.423830840037994 0 1,1 0,18.847661680075987z" style="fill: rgb(232, 40, 68); stroke: rgb(232, 40, 68); opacity: 0.8;"></path><path class="node" d="M1469,265m0,11.064399791424284a11.064399791424284,11.064399791424284 0 1,1 0,-22.12879958284857a11.064399791424284,11.064399791424284 0 1,1 0,22.12879958284857z" style="fill: rgb(232, 40, 68); stroke: rgb(232, 40, 68); opacity: 0.8;"></path><path class="node" d="M1527,255m0,11.963611807054164a11.963611807054164,11.963611807054164 0 1,1 0,-23.92722361410833a11.963611807054164,11.963611807054164 0 1,1 0,23.92722361410833z" style="fill: rgb(232, 40, 68); stroke: rgb(232, 40, 68); opacity: 0.8;"></path><path class="node" d="M1375,255m0,10.180075765389319a10.180075765389319,10.180075765389319 0 1,1 0,-20.360151530778637a10.180075765389319,10.180075765389319 0 1,1 0,20.360151530778637z" style="fill: rgb(232, 40, 68); stroke: rgb(232, 40, 68); opacity: 0.8;"></path><path class="node" d="M1500,253m0,11.735407513897792a11.735407513897792,11.735407513897792 0 1,1 0,-23.470815027795584a11.735407513897792,11.735407513897792 0 1,1 0,23.470815027795584z" style="fill: rgb(232, 40, 68); stroke: rgb(232, 40, 68); opacity: 0.8;"></path><path class="node" d="M989,252m0,9.761133926536269a9.761133926536269,9.761133926536269 0 1,1 0,-19.522267853072538a9.761133926536269,9.761133926536269 0 1,1 0,19.522267853072538z" style="fill: rgb(232, 40, 68); stroke: rgb(232, 40, 68); opacity: 0.8;"></path><path class="node" d="M1579,249m0,13.08696421285537a13.08696421285537,13.08696421285537 0 1,1 0,-26.17392842571074a13.08696421285537,13.08696421285537 0 1,1 0,26.17392842571074z" style="fill: rgb(232, 40, 68); stroke: rgb(232, 40, 68); opacity: 0.8;"></path><path class="node" d="M1039,245m0,10.66061617994616a10.66061617994616,10.66061617994616 0 1,1 0,-21.32123235989232a10.66061617994616,10.66061617994616 0 1,1 0,21.32123235989232z" style="fill: rgb(232, 40, 68); stroke: rgb(232, 40, 68); opacity: 0.8;"></path><path class="node" d="M1080,244m0,10.93112679937366a10.93112679937366,10.93112679937366 0 1,1 0,-21.86225359874732a10.93112679937366,10.93112679937366 0 1,1 0,21.86225359874732z" style="fill: rgb(232, 40, 68); stroke: rgb(232, 40, 68); opacity: 0.8;"></path><path class="node" d="M1406,240m0,9.946118429301237a9.946118429301237,9.946118429301237 0 1,1 0,-19.892236858602473a9.946118429301237,9.946118429301237 0 1,1 0,19.892236858602473z" style="fill: rgb(232, 40, 68); stroke: rgb(232, 40, 68); opacity: 0.8;"></path><path class="node" d="M1462,232m0,11.78133453679526a11.78133453679526,11.78133453679526 0 1,1 0,-23.56266907359052a11.78133453679526,11.78133453679526 0 1,1 0,23.56266907359052z" style="fill: rgb(232, 40, 68); stroke: rgb(232, 40, 68); opacity: 0.8;"></path><path class="node" d="M1278,220m0,9.58688474760574a9.58688474760574,9.58688474760574 0 1,1 0,-19.17376949521148a9.58688474760574,9.58688474760574 0 1,1 0,19.17376949521148z" style="fill: rgb(232, 40, 68); stroke: rgb(232, 40, 68); opacity: 0.8;"></path><path class="node" d="M1540,218m0,14.409946612088397a14.409946612088397,14.409946612088397 0 1,1 0,-28.819893224176795a14.409946612088397,14.409946612088397 0 1,1 0,28.819893224176795z" style="fill: rgb(232, 40, 68); stroke: rgb(232, 40, 68); opacity: 0.8;"></path><path class="node" d="M1606,214m0,14.51643136075886a14.51643136075886,14.51643136075886 0 1,1 0,-29.03286272151772a14.51643136075886,14.51643136075886 0 1,1 0,29.03286272151772z" style="fill: rgb(232, 40, 68); stroke: rgb(232, 40, 68); opacity: 0.8;"></path><path class="node" d="M1412,213m0,12.617117919646994a12.617117919646994,12.617117919646994 0 1,1 0,-25.234235839293987a12.617117919646994,12.617117919646994 0 1,1 0,25.234235839293987z" style="fill: rgb(232, 40, 68); stroke: rgb(232, 40, 68); opacity: 0.8;"></path><path class="node" d="M1509,212m0,14.145734506486399a14.145734506486399,14.145734506486399 0 1,1 0,-28.291469012972797a14.145734506486399,14.145734506486399 0 1,1 0,28.291469012972797z" style="fill: rgb(232, 40, 68); stroke: rgb(232, 40, 68); opacity: 0.8;"></path><path class="node" d="M1374,198m0,12.938991335772931a12.938991335772931,12.938991335772931 0 1,1 0,-25.877982671545862a12.938991335772931,12.938991335772931 0 1,1 0,25.877982671545862z" style="fill: rgb(232, 40, 68); stroke: rgb(232, 40, 68); opacity: 0.8;"></path><path class="node" d="M1097,189m0,10.771932397883452a10.771932397883452,10.771932397883452 0 1,1 0,-21.543864795766904a10.771932397883452,10.771932397883452 0 1,1 0,21.543864795766904z" style="fill: rgb(232, 40, 68); stroke: rgb(232, 40, 68); opacity: 0.8;"></path><path class="node" d="M1473,185m0,15.039311335363339a15.039311335363339,15.039311335363339 0 1,1 0,-30.078622670726677a15.039311335363339,15.039311335363339 0 1,1 0,30.078622670726677z" style="fill: rgb(232, 40, 68); stroke: rgb(232, 40, 68); opacity: 0.8;"></path><path class="node" d="M1041,174m0,10.560888555906189a10.560888555906189,10.560888555906189 0 1,1 0,-21.121777111812378a10.560888555906189,10.560888555906189 0 1,1 0,21.121777111812378z" style="fill: rgb(232, 40, 68); stroke: rgb(232, 40, 68); opacity: 0.8;"></path><path class="node" d="M1374,169m0,12.076399275835069a12.076399275835069,12.076399275835069 0 1,1 0,-24.152798551670138a12.076399275835069,12.076399275835069 0 1,1 0,24.152798551670138z" style="fill: rgb(232, 40, 68); stroke: rgb(232, 40, 68); opacity: 0.8;"></path><path class="node" d="M1552,165m0,14.822542325367271a14.822542325367271,14.822542325367271 0 1,1 0,-29.645084650734542a14.822542325367271,14.822542325367271 0 1,1 0,29.645084650734542z" style="fill: rgb(232, 40, 68); stroke: rgb(232, 40, 68); opacity: 0.8;"></path><path class="node" d="M1402,161m0,15.70146043590512a15.70146043590512,15.70146043590512 0 1,1 0,-31.40292087181024a15.70146043590512,15.70146043590512 0 1,1 0,31.40292087181024z" style="fill: rgb(232, 40, 68); stroke: rgb(232, 40, 68); opacity: 0.8;"></path><path class="node" d="M1113,160m0,12.255099173208482a12.255099173208482,12.255099173208482 0 1,1 0,-24.510198346416963a12.255099173208482,12.255099173208482 0 1,1 0,24.510198346416963z" style="fill: rgb(232, 40, 68); stroke: rgb(232, 40, 68); opacity: 0.8;"></path><path class="node" d="M1355,158m0,12.7896119685402a12.7896119685402,12.7896119685402 0 1,1 0,-25.5792239370804a12.7896119685402,12.7896119685402 0 1,1 0,25.5792239370804z" style="fill: rgb(232, 40, 68); stroke: rgb(232, 40, 68); opacity: 0.8;"></path><path class="node" d="M1156,153m0,8.514515571765298a8.514515571765298,8.514515571765298 0 1,1 0,-17.029031143530595a8.514515571765298,8.514515571765298 0 1,1 0,17.029031143530595z" style="fill: rgb(232, 40, 68); stroke: rgb(232, 40, 68); opacity: 0.8;"></path><path class="node" d="M1511,146m0,15.465123679174136a15.465123679174136,15.465123679174136 0 1,1 0,-30.93024735834827a15.465123679174136,15.465123679174136 0 1,1 0,30.93024735834827z" style="fill: rgb(232, 40, 68); stroke: rgb(232, 40, 68); opacity: 0.8;"></path><path class="node" d="M1063,146m0,12.508320702196231a12.508320702196231,12.508320702196231 0 1,1 0,-25.016641404392463a12.508320702196231,12.508320702196231 0 1,1 0,25.016641404392463z" style="fill: rgb(232, 40, 68); stroke: rgb(232, 40, 68); opacity: 0.8;"></path><path class="node" d="M1427,145m0,14.361325745071309a14.361325745071309,14.361325745071309 0 1,1 0,-28.722651490142617a14.361325745071309,14.361325745071309 0 1,1 0,28.722651490142617z" style="fill: rgb(232, 40, 68); stroke: rgb(232, 40, 68); opacity: 0.8;"></path><path class="node" d="M1186,140m0,10.52329792033347a10.52329792033347,10.52329792033347 0 1,1 0,-21.04659584066694a10.52329792033347,10.52329792033347 0 1,1 0,21.04659584066694z" style="fill: rgb(232, 40, 68); stroke: rgb(232, 40, 68); opacity: 0.8;"></path><path class="node" d="M1134,131m0,10.535839925349883a10.535839925349883,10.535839925349883 0 1,1 0,-21.071679850699766a10.535839925349883,10.535839925349883 0 1,1 0,21.071679850699766z" style="fill: rgb(232, 40, 68); stroke: rgb(232, 40, 68); opacity: 0.8;"></path><path class="node" d="M1360,129m0,12.606272822588393a12.606272822588393,12.606272822588393 0 1,1 0,-25.212545645176785a12.606272822588393,12.606272822588393 0 1,1 0,25.212545645176785z" style="fill: rgb(232, 40, 68); stroke: rgb(232, 40, 68); opacity: 0.8;"></path><path class="node" d="M1589,129m0,17.4024285900698a17.4024285900698,17.4024285900698 0 1,1 0,-34.8048571801396a17.4024285900698,17.4024285900698 0 1,1 0,34.8048571801396z" style="fill: rgb(232, 40, 68); stroke: rgb(232, 40, 68); opacity: 0.8;"></path><path class="node" d="M1528,127m0,13.937349057197405a13.937349057197405,13.937349057197405 0 1,1 0,-27.87469811439481a13.937349057197405,13.937349057197405 0 1,1 0,27.87469811439481z" style="fill: rgb(232, 40, 68); stroke: rgb(232, 40, 68); opacity: 0.8;"></path><path class="node" d="M1471,119m0,14.660589954622976a14.660589954622976,14.660589954622976 0 1,1 0,-29.321179909245952a14.660589954622976,14.660589954622976 0 1,1 0,29.321179909245952z" style="fill: rgb(232, 40, 68); stroke: rgb(232, 40, 68); opacity: 0.8;"></path><path class="node" d="M1212,117m0,11.585130475247485a11.585130475247485,11.585130475247485 0 1,1 0,-23.17026095049497a11.585130475247485,11.585130475247485 0 1,1 0,23.17026095049497z" style="fill: rgb(232, 40, 68); stroke: rgb(232, 40, 68); opacity: 0.8;"></path><path class="node" d="M1121,114m0,11.515238936786757a11.515238936786757,11.515238936786757 0 1,1 0,-23.030477873573513a11.515238936786757,11.515238936786757 0 1,1 0,23.030477873573513z" style="fill: rgb(232, 40, 68); stroke: rgb(232, 40, 68); opacity: 0.8;"></path><path class="node" d="M1510,112m0,15.665298060974482a15.665298060974482,15.665298060974482 0 1,1 0,-31.330596121948965a15.665298060974482,15.665298060974482 0 1,1 0,31.330596121948965z" style="fill: rgb(232, 40, 68); stroke: rgb(232, 40, 68); opacity: 0.8;"></path><path class="node" d="M1252,109m0,13.42011256949294a13.42011256949294,13.42011256949294 0 1,1 0,-26.84022513898588a13.42011256949294,13.42011256949294 0 1,1 0,26.84022513898588z" style="fill: rgb(232, 40, 68); stroke: rgb(232, 40, 68); opacity: 0.8;"></path><path class="node" d="M1564,105m0,14.784570247108338a14.784570247108338,14.784570247108338 0 1,1 0,-29.569140494216676a14.784570247108338,14.784570247108338 0 1,1 0,29.569140494216676z" style="fill: rgb(232, 40, 68); stroke: rgb(232, 40, 68); opacity: 0.8;"></path><path class="node" d="M1405,103m0,13.08696421285537a13.08696421285537,13.08696421285537 0 1,1 0,-26.17392842571074a13.08696421285537,13.08696421285537 0 1,1 0,26.17392842571074z" style="fill: rgb(232, 40, 68); stroke: rgb(232, 40, 68); opacity: 0.8;"></path><path class="node" d="M1183,100m0,11.397987289186347a11.397987289186347,11.397987289186347 0 1,1 0,-22.795974578372693a11.397987289186347,11.397987289186347 0 1,1 0,22.795974578372693z" style="fill: rgb(232, 40, 68); stroke: rgb(232, 40, 68); opacity: 0.8;"></path><path class="node" d="M1324,100m0,15.1234194666395a15.1234194666395,15.1234194666395 0 1,1 0,-30.246838933279a15.1234194666395,15.1234194666395 0 1,1 0,30.246838933279z" style="fill: rgb(232, 40, 68); stroke: rgb(232, 40, 68); opacity: 0.8;"></path><path class="node" d="M1608,91m0,17.542540016951577a17.542540016951577,17.542540016951577 0 1,1 0,-35.085080033903154a17.542540016951577,17.542540016951577 0 1,1 0,35.085080033903154z" style="fill: rgb(232, 40, 68); stroke: rgb(232, 40, 68); opacity: 0.8;"></path><path class="node" d="M1157,86m0,10.771932397883452a10.771932397883452,10.771932397883452 0 1,1 0,-21.543864795766904a10.771932397883452,10.771932397883452 0 1,1 0,21.543864795766904z" style="fill: rgb(232, 40, 68); stroke: rgb(232, 40, 68); opacity: 0.8;"></path><path class="node" d="M1546,84m0,17.16114273603296a17.16114273603296,17.16114273603296 0 1,1 0,-34.32228547206592a17.16114273603296,17.16114273603296 0 1,1 0,34.32228547206592z" style="fill: rgb(232, 40, 68); stroke: rgb(232, 40, 68); opacity: 0.8;"></path><path class="node" d="M1415,73m0,17.144394611968373a17.144394611968373,17.144394611968373 0 1,1 0,-34.288789223936746a17.144394611968373,17.144394611968373 0 1,1 0,34.288789223936746z" style="fill: rgb(232, 40, 68); stroke: rgb(232, 40, 68); opacity: 0.8;"></path><path class="node" d="M1134,73m0,11.596746025807226a11.596746025807226,11.596746025807226 0 1,1 0,-23.193492051614452a11.596746025807226,11.596746025807226 0 1,1 0,23.193492051614452z" style="fill: rgb(232, 40, 68); stroke: rgb(232, 40, 68); opacity: 0.8;"></path><path class="node" d="M1194,68m0,13.107990676234571a13.107990676234571,13.107990676234571 0 1,1 0,-26.215981352469143a13.107990676234571,13.107990676234571 0 1,1 0,26.215981352469143z" style="fill: rgb(232, 40, 68); stroke: rgb(232, 40, 68); opacity: 0.8;"></path><path class="node" d="M1343,55m0,13.563729383533216a13.563729383533216,13.563729383533216 0 1,1 0,-27.127458767066432a13.563729383533216,13.563729383533216 0 1,1 0,27.127458767066432z" style="fill: rgb(232, 40, 68); stroke: rgb(232, 40, 68); opacity: 0.8;"></path><path class="node" d="M1600,50m0,19.108462594885665a19.108462594885665,19.108462594885665 0 1,1 0,-38.21692518977133a19.108462594885665,19.108462594885665 0 1,1 0,38.21692518977133z" style="fill: rgb(232, 40, 68); stroke: rgb(232, 40, 68); opacity: 0.8;"></path><path class="node" d="M1385,49m0,15.665298060974482a15.665298060974482,15.665298060974482 0 1,1 0,-31.330596121948965a15.665298060974482,15.665298060974482 0 1,1 0,31.330596121948965z" style="fill: rgb(232, 40, 68); stroke: rgb(232, 40, 68); opacity: 0.8;"></path><path class="node" d="M1282,46m0,13.837199297051907a13.837199297051907,13.837199297051907 0 1,1 0,-27.674398594103813a13.837199297051907,13.837199297051907 0 1,1 0,27.674398594103813z" style="fill: rgb(232, 40, 68); stroke: rgb(232, 40, 68); opacity: 0.8;"></path><path class="node" d="M1261,45m0,13.202267385934194a13.202267385934194,13.202267385934194 0 1,1 0,-26.404534771868388a13.202267385934194,13.202267385934194 0 1,1 0,26.404534771868388z" style="fill: rgb(232, 40, 68); stroke: rgb(232, 40, 68); opacity: 0.8;"></path><path class="node" d="M1485,44m0,14.689278899820046a14.689278899820046,14.689278899820046 0 1,1 0,-29.37855779964009a14.689278899820046,14.689278899820046 0 1,1 0,29.37855779964009z" style="fill: rgb(232, 40, 68); stroke: rgb(232, 40, 68); opacity: 0.8;"></path><path class="node" d="M1244,42m0,13.796969952928784a13.796969952928784,13.796969952928784 0 1,1 0,-27.593939905857567a13.796969952928784,13.796969952928784 0 1,1 0,27.593939905857567z" style="fill: rgb(232, 40, 68); stroke: rgb(232, 40, 68); opacity: 0.8;"></path><path class="node" d="M1438,39m0,15.908035983858829a15.908035983858829,15.908035983858829 0 1,1 0,-31.816071967717658a15.908035983858829,15.908035983858829 0 1,1 0,31.816071967717658z" style="fill: rgb(232, 40, 68); stroke: rgb(232, 40, 68); opacity: 0.8;"></path><path class="node" d="M1528,33m0,14.641437740827739a14.641437740827739,14.641437740827739 0 1,1 0,-29.282875481655477a14.641437740827739,14.641437740827739 0 1,1 0,29.282875481655477z" style="fill: rgb(232, 40, 68); stroke: rgb(232, 40, 68); opacity: 0.8;"></path><path class="node" d="M1373,6m0,17.779349709887125a17.779349709887125,17.779349709887125 0 1,1 0,-35.55869941977425a17.779349709887125,17.779349709887125 0 1,1 0,35.55869941977425z" style="fill: rgb(232, 40, 68); stroke: rgb(232, 40, 68); opacity: 0.8;"></path><path class="node" d="M1216,4m0,13.327111180627272a13.327111180627272,13.327111180627272 0 1,1 0,-26.654222361254543a13.327111180627272,13.327111180627272 0 1,1 0,26.654222361254543z" style="fill: rgb(232, 40, 68); stroke: rgb(232, 40, 68); opacity: 0.8;"></path><path class="node" d="M1323,2m0,15.391786219965063a15.391786219965063,15.391786219965063 0 1,1 0,-30.783572439930126a15.391786219965063,15.391786219965063 0 1,1 0,30.783572439930126z" style="fill: rgb(232, 40, 68); stroke: rgb(232, 40, 68); opacity: 0.8;"></path><path class="node" d="M1606,0m0,16.557702522713686a16.557702522713686,16.557702522713686 0 1,1 0,-33.11540504542737a16.557702522713686,16.557702522713686 0 1,1 0,33.11540504542737z" style="fill: rgb(232, 40, 68); stroke: rgb(232, 40, 68); opacity: 0.8;"></path><path class="node" d="M1539,-9m0,14.983017966277364a14.983017966277364,14.983017966277364 0 1,1 0,-29.96603593255473a14.983017966277364,14.983017966277364 0 1,1 0,29.96603593255473z" style="fill: rgb(232, 40, 68); stroke: rgb(232, 40, 68); opacity: 0.8;"></path><path class="node" d="M1268,-18m0,12.714382151726017a12.714382151726017,12.714382151726017 0 1,1 0,-25.428764303452034a12.714382151726017,12.714382151726017 0 1,1 0,25.428764303452034z" style="fill: rgb(232, 40, 68); stroke: rgb(232, 40, 68); opacity: 0.8;"></path><path class="node" d="M1292,-19m0,13.71621690056613a13.71621690056613,13.71621690056613 0 1,1 0,-27.43243380113226a13.71621690056613,13.71621690056613 0 1,1 0,27.43243380113226z" style="fill: rgb(232, 40, 68); stroke: rgb(232, 40, 68); opacity: 0.8;"></path></g></g></svg>